<svg width="360" height="141" viewBox="0 0 360 141" fill="none" xmlns="http://www.w3.org/2000/svg">
<g clip-path="url(#clip0_107_17658)">
<path d="M0 24C0 10.7452 10.7452 0 24 0H336C349.255 0 360 10.7452 360 24V117C360 130.255 349.255 141 336 141H24C10.7452 141 0 130.255 0 117V24Z" fill="#A855F7"/>
<rect x="212.665" y="70.5803" width="90.7428" height="148.759" rx="15" transform="rotate(-26.2696 212.665 70.5803)" fill="#EBDBF9" fill-opacity="0.18"/>
<rect x="-20" y="10.5508" width="44.1731" height="44.1718" rx="22.0859" transform="rotate(-26.2696 -20 10.5508)" fill="#EBDBF9" fill-opacity="0.18"/>
<rect x="282.665" y="-19.4197" width="64.7985" height="106.227" rx="15" transform="rotate(-26.2696 282.665 -19.4197)" fill="#EBDBF9" fill-opacity="0.18"/>
<path d="M16 54C16 38.536 28.536 26 44 26C59.464 26 72 38.536 72 54C72 69.464 59.464 82 44 82C28.536 82 16 69.464 16 54Z" fill="#D9B7F9" fill-opacity="0.7"/>
<path d="M52.4001 47.224C52.3161 47.21 52.2181 47.21 52.1341 47.224C50.2021 47.154 48.6621 45.572 48.6621 43.612C48.6621 41.61 50.2721 40 52.2741 40C54.2761 40 55.8861 41.624 55.8861 43.612C55.8721 45.572 54.3321 47.154 52.4001 47.224Z" stroke="#EFF6FF" stroke-width="2.1" stroke-linecap="round" stroke-linejoin="round"/>
<path d="M50.958 57.416C52.876 57.738 54.99 57.402 56.474 56.408C58.448 55.092 58.448 52.936 56.474 51.62C54.976 50.626 52.834 50.29 50.916 50.626" stroke="#EFF6FF" stroke-width="2.1" stroke-linecap="round" stroke-linejoin="round"/>
<path d="M35.5583 47.224C35.6423 47.21 35.7403 47.21 35.8243 47.224C37.7563 47.154 39.2963 45.572 39.2963 43.612C39.2963 41.61 37.6863 40 35.6843 40C33.6823 40 32.0723 41.624 32.0723 43.612C32.0863 45.572 33.6263 47.154 35.5583 47.224Z" stroke="#EFF6FF" stroke-width="2.1" stroke-linecap="round" stroke-linejoin="round"/>
<path d="M36.9999 57.416C35.0819 57.738 32.9679 57.402 31.4839 56.408C29.5099 55.092 29.5099 52.936 31.4839 51.62C32.9819 50.626 35.1239 50.29 37.0419 50.626" stroke="#EFF6FF" stroke-width="2.1" stroke-linecap="round" stroke-linejoin="round"/>
<path d="M44.0002 57.6819C43.9162 57.6679 43.8182 57.6679 43.7342 57.6819C41.8022 57.6119 40.2622 56.0299 40.2622 54.0699C40.2622 52.0679 41.8722 50.4579 43.8742 50.4579C45.8762 50.4579 47.4862 52.0819 47.4862 54.0699C47.4722 56.0299 45.9322 57.6259 44.0002 57.6819Z" stroke="#EFF6FF" stroke-width="2.1" stroke-linecap="round" stroke-linejoin="round"/>
<path d="M39.9263 62.0919C37.9523 63.4079 37.9523 65.5639 39.9263 66.8799C42.1663 68.3779 45.8343 68.3779 48.0743 66.8799C50.0483 65.5639 50.0483 63.4079 48.0743 62.0919C45.8483 60.6079 42.1663 60.6079 39.9263 62.0919Z" stroke="#EFF6FF" stroke-width="2.1" stroke-linecap="round" stroke-linejoin="round"/>
<path d="M109.53 59H104.151V45.371C104.151 44.997 104.151 44.535 104.151 43.985C104.173 43.435 104.184 42.863 104.184 42.269C104.206 41.675 104.228 41.147 104.25 40.685C104.074 40.817 103.843 41.059 103.557 41.411C103.293 41.763 103.018 42.06 102.732 42.302L100.257 44.48L97.551 41.477L104.91 35.438H109.53V59ZM115.006 49.001C115.006 47.637 115.094 46.295 115.27 44.975C115.468 43.655 115.798 42.412 116.26 41.246C116.744 40.058 117.404 39.013 118.24 38.111C119.098 37.187 120.198 36.472 121.54 35.966C122.882 35.438 124.488 35.174 126.358 35.174C126.798 35.174 127.315 35.196 127.909 35.24C128.525 35.262 129.031 35.317 129.427 35.405V39.398C129.009 39.288 128.558 39.211 128.074 39.167C127.59 39.101 127.051 39.068 126.457 39.068C125.203 39.068 124.158 39.244 123.322 39.596C122.508 39.948 121.848 40.454 121.342 41.114C120.858 41.774 120.495 42.555 120.253 43.457C120.033 44.337 119.901 45.327 119.857 46.427H120.055C120.319 45.899 120.649 45.437 121.045 45.041C121.463 44.623 121.969 44.293 122.563 44.051C123.157 43.809 123.85 43.688 124.642 43.688C125.94 43.688 127.051 43.985 127.975 44.579C128.921 45.151 129.647 45.998 130.153 47.12C130.659 48.22 130.912 49.562 130.912 51.146C130.912 52.84 130.593 54.303 129.955 55.535C129.339 56.767 128.459 57.713 127.315 58.373C126.171 59.011 124.807 59.33 123.223 59.33C122.079 59.33 121.001 59.121 119.989 58.703C118.999 58.285 118.13 57.658 117.382 56.822C116.634 55.964 116.051 54.886 115.633 53.588C115.215 52.29 115.006 50.761 115.006 49.001ZM123.124 55.337C123.894 55.337 124.521 55.007 125.005 54.347C125.489 53.665 125.731 52.62 125.731 51.212C125.731 50.068 125.522 49.166 125.104 48.506C124.708 47.846 124.07 47.516 123.19 47.516C122.596 47.516 122.079 47.681 121.639 48.011C121.221 48.319 120.891 48.726 120.649 49.232C120.429 49.738 120.319 50.255 120.319 50.783C120.319 51.333 120.374 51.883 120.484 52.433C120.594 52.961 120.759 53.445 120.979 53.885C121.221 54.325 121.518 54.677 121.87 54.941C122.222 55.205 122.64 55.337 123.124 55.337ZM141.602 43.952C142.9 43.952 144.055 44.227 145.067 44.777C146.101 45.327 146.915 46.13 147.509 47.186C148.125 48.242 148.433 49.551 148.433 51.113C148.433 52.807 148.103 54.27 147.443 55.502C146.783 56.734 145.793 57.68 144.473 58.34C143.153 59 141.503 59.33 139.523 59.33C138.313 59.33 137.18 59.22 136.124 59C135.09 58.78 134.177 58.461 133.385 58.043V53.753C134.155 54.171 135.079 54.534 136.157 54.842C137.257 55.128 138.269 55.271 139.193 55.271C140.029 55.271 140.733 55.139 141.305 54.875C141.877 54.611 142.306 54.204 142.592 53.654C142.9 53.104 143.054 52.4 143.054 51.542C143.054 50.376 142.724 49.496 142.064 48.902C141.404 48.286 140.392 47.978 139.028 47.978C138.456 47.978 137.884 48.044 137.312 48.176C136.74 48.286 136.245 48.396 135.827 48.506L133.781 47.45L134.639 35.438H146.948V39.662H139.226L138.863 44.282C139.215 44.216 139.567 44.15 139.919 44.084C140.293 43.996 140.854 43.952 141.602 43.952ZM159.553 43.952C160.851 43.952 162.006 44.227 163.018 44.777C164.052 45.327 164.866 46.13 165.46 47.186C166.076 48.242 166.384 49.551 166.384 51.113C166.384 52.807 166.054 54.27 165.394 55.502C164.734 56.734 163.744 57.68 162.424 58.34C161.104 59 159.454 59.33 157.474 59.33C156.264 59.33 155.131 59.22 154.075 59C153.041 58.78 152.128 58.461 151.336 58.043V53.753C152.106 54.171 153.03 54.534 154.108 54.842C155.208 55.128 156.22 55.271 157.144 55.271C157.98 55.271 158.684 55.139 159.256 54.875C159.828 54.611 160.257 54.204 160.543 53.654C160.851 53.104 161.005 52.4 161.005 51.542C161.005 50.376 160.675 49.496 160.015 48.902C159.355 48.286 158.343 47.978 156.979 47.978C156.407 47.978 155.835 48.044 155.263 48.176C154.691 48.286 154.196 48.396 153.778 48.506L151.732 47.45L152.59 35.438H164.899V39.662H157.177L156.814 44.282C157.166 44.216 157.518 44.15 157.87 44.084C158.244 43.996 158.805 43.952 159.553 43.952Z" fill="#EFF6FF"/>
<path d="M104.289 109H101.886V91.855H96.27V89.722H109.851V91.855H104.289V109ZM122.406 101.737C122.406 102.943 122.253 104.014 121.947 104.95C121.659 105.868 121.236 106.651 120.678 107.299C120.12 107.947 119.445 108.442 118.653 108.784C117.861 109.108 116.979 109.27 116.007 109.27C115.107 109.27 114.27 109.108 113.496 108.784C112.74 108.442 112.074 107.947 111.498 107.299C110.94 106.651 110.508 105.868 110.202 104.95C109.896 104.014 109.743 102.943 109.743 101.737C109.743 100.135 109.995 98.785 110.499 97.687C111.021 96.571 111.759 95.725 112.713 95.149C113.667 94.555 114.792 94.258 116.088 94.258C117.33 94.258 118.419 94.555 119.355 95.149C120.309 95.725 121.056 96.571 121.596 97.687C122.136 98.785 122.406 100.135 122.406 101.737ZM112.173 101.737C112.173 102.871 112.308 103.861 112.578 104.707C112.848 105.535 113.271 106.174 113.847 106.624C114.423 107.074 115.161 107.299 116.061 107.299C116.961 107.299 117.699 107.074 118.275 106.624C118.851 106.174 119.274 105.535 119.544 104.707C119.832 103.861 119.976 102.871 119.976 101.737C119.976 100.585 119.832 99.604 119.544 98.794C119.274 97.984 118.851 97.363 118.275 96.931C117.699 96.481 116.952 96.256 116.034 96.256C114.684 96.256 113.703 96.742 113.091 97.714C112.479 98.686 112.173 100.027 112.173 101.737ZM130.569 107.326C130.911 107.326 131.262 107.299 131.622 107.245C131.982 107.173 132.279 107.101 132.513 107.029V108.838C132.261 108.964 131.901 109.063 131.433 109.135C130.983 109.225 130.551 109.27 130.137 109.27C129.417 109.27 128.751 109.144 128.139 108.892C127.527 108.622 127.032 108.163 126.654 107.515C126.294 106.867 126.114 105.958 126.114 104.788V96.364H124.197V95.23L126.168 94.285L127.059 91.207H128.463V94.528H132.405V96.364H128.463V104.734C128.463 105.616 128.661 106.273 129.057 106.705C129.453 107.119 129.957 107.326 130.569 107.326ZM140.416 94.285C142.072 94.285 143.305 94.672 144.115 95.446C144.943 96.22 145.357 97.453 145.357 99.145V109H143.656L143.197 106.948H143.089C142.693 107.47 142.288 107.911 141.874 108.271C141.478 108.613 141.01 108.865 140.47 109.027C139.948 109.189 139.3 109.27 138.526 109.27C137.716 109.27 136.987 109.117 136.339 108.811C135.691 108.505 135.178 108.037 134.8 107.407C134.422 106.759 134.233 105.949 134.233 104.977C134.233 103.537 134.764 102.43 135.826 101.656C136.888 100.864 138.526 100.432 140.74 100.36L143.035 100.279V99.415C143.035 98.209 142.792 97.372 142.306 96.904C141.838 96.436 141.163 96.202 140.281 96.202C139.579 96.202 138.904 96.319 138.256 96.553C137.626 96.769 137.023 97.021 136.447 97.309L135.718 95.527C136.33 95.185 137.041 94.897 137.851 94.663C138.661 94.411 139.516 94.285 140.416 94.285ZM141.064 102.007C139.408 102.079 138.256 102.367 137.608 102.871C136.978 103.375 136.663 104.086 136.663 105.004C136.663 105.814 136.888 106.408 137.338 106.786C137.788 107.164 138.373 107.353 139.093 107.353C140.209 107.353 141.145 107.02 141.901 106.354C142.657 105.67 143.035 104.626 143.035 103.222V101.926L141.064 102.007ZM151.898 109H149.549V88.48H151.898V109ZM176.934 102.196C176.934 103.528 176.673 104.734 176.151 105.814C175.647 106.876 174.864 107.722 173.802 108.352C172.758 108.964 171.435 109.27 169.833 109.27C167.565 109.27 165.837 108.622 164.649 107.326C163.479 106.012 162.894 104.284 162.894 102.142V89.722H165.297V102.223C165.297 103.789 165.684 105.004 166.458 105.868C167.232 106.732 168.402 107.164 169.968 107.164C171.048 107.164 171.921 106.957 172.587 106.543C173.253 106.111 173.739 105.526 174.045 104.788C174.369 104.032 174.531 103.168 174.531 102.196V89.722H176.934V102.196ZM190.311 105.004C190.311 105.94 190.086 106.723 189.636 107.353C189.204 107.983 188.583 108.46 187.773 108.784C186.963 109.108 185.991 109.27 184.857 109.27C183.903 109.27 183.075 109.189 182.373 109.027C181.689 108.865 181.086 108.64 180.564 108.352V106.192C181.122 106.48 181.788 106.75 182.562 107.002C183.336 107.236 184.119 107.353 184.911 107.353C186.009 107.353 186.801 107.164 187.287 106.786C187.791 106.39 188.043 105.868 188.043 105.22C188.043 104.86 187.944 104.536 187.746 104.248C187.566 103.96 187.233 103.672 186.747 103.384C186.279 103.096 185.595 102.772 184.695 102.412C183.831 102.052 183.084 101.692 182.454 101.332C181.842 100.972 181.365 100.54 181.023 100.036C180.699 99.532 180.537 98.884 180.537 98.092C180.537 96.868 181.005 95.923 181.941 95.257C182.895 94.591 184.137 94.258 185.667 94.258C186.495 94.258 187.269 94.348 187.989 94.528C188.709 94.69 189.393 94.924 190.041 95.23L189.258 97.12C188.88 96.94 188.484 96.787 188.07 96.661C187.656 96.517 187.233 96.409 186.801 96.337C186.387 96.247 185.964 96.202 185.532 96.202C184.65 96.202 183.975 96.364 183.507 96.688C183.039 96.994 182.805 97.417 182.805 97.957C182.805 98.353 182.913 98.695 183.129 98.983C183.345 99.271 183.696 99.55 184.182 99.82C184.686 100.072 185.37 100.369 186.234 100.711C187.098 101.053 187.836 101.404 188.448 101.764C189.06 102.124 189.519 102.565 189.825 103.087C190.149 103.591 190.311 104.23 190.311 105.004ZM198.874 94.258C200.044 94.258 201.052 94.528 201.898 95.068C202.744 95.608 203.392 96.373 203.842 97.363C204.31 98.335 204.544 99.478 204.544 100.792V102.223H195.256C195.292 103.861 195.679 105.112 196.417 105.976C197.155 106.822 198.19 107.245 199.522 107.245C200.386 107.245 201.151 107.164 201.817 107.002C202.501 106.822 203.203 106.57 203.923 106.246V108.325C203.221 108.649 202.528 108.883 201.844 109.027C201.178 109.189 200.368 109.27 199.414 109.27C198.118 109.27 196.975 108.991 195.985 108.433C194.995 107.875 194.221 107.047 193.663 105.949C193.105 104.833 192.826 103.474 192.826 101.872C192.826 100.288 193.078 98.929 193.582 97.795C194.086 96.661 194.788 95.788 195.688 95.176C196.606 94.564 197.668 94.258 198.874 94.258ZM198.874 96.202C197.83 96.202 197.002 96.571 196.39 97.309C195.778 98.029 195.418 99.037 195.31 100.333H202.114C202.114 99.505 201.997 98.785 201.763 98.173C201.529 97.561 201.169 97.084 200.683 96.742C200.215 96.382 199.612 96.202 198.874 96.202ZM214.405 94.258C214.657 94.258 214.927 94.276 215.215 94.312C215.503 94.33 215.755 94.366 215.971 94.42L215.701 96.607C215.485 96.553 215.242 96.508 214.972 96.472C214.72 96.436 214.477 96.418 214.243 96.418C213.721 96.418 213.226 96.535 212.758 96.769C212.29 97.003 211.867 97.336 211.489 97.768C211.129 98.182 210.841 98.686 210.625 99.28C210.409 99.874 210.301 100.54 210.301 101.278V109H207.952V94.528H209.869L210.139 97.174H210.247C210.535 96.634 210.877 96.148 211.273 95.716C211.687 95.266 212.155 94.915 212.677 94.663C213.199 94.393 213.775 94.258 214.405 94.258ZM227.436 105.004C227.436 105.94 227.211 106.723 226.761 107.353C226.329 107.983 225.708 108.46 224.898 108.784C224.088 109.108 223.116 109.27 221.982 109.27C221.028 109.27 220.2 109.189 219.498 109.027C218.814 108.865 218.211 108.64 217.689 108.352V106.192C218.247 106.48 218.913 106.75 219.687 107.002C220.461 107.236 221.244 107.353 222.036 107.353C223.134 107.353 223.926 107.164 224.412 106.786C224.916 106.39 225.168 105.868 225.168 105.22C225.168 104.86 225.069 104.536 224.871 104.248C224.691 103.96 224.358 103.672 223.872 103.384C223.404 103.096 222.72 102.772 221.82 102.412C220.956 102.052 220.209 101.692 219.579 101.332C218.967 100.972 218.49 100.54 218.148 100.036C217.824 99.532 217.662 98.884 217.662 98.092C217.662 96.868 218.13 95.923 219.066 95.257C220.02 94.591 221.262 94.258 222.792 94.258C223.62 94.258 224.394 94.348 225.114 94.528C225.834 94.69 226.518 94.924 227.166 95.23L226.383 97.12C226.005 96.94 225.609 96.787 225.195 96.661C224.781 96.517 224.358 96.409 223.926 96.337C223.512 96.247 223.089 96.202 222.657 96.202C221.775 96.202 221.1 96.364 220.632 96.688C220.164 96.994 219.93 97.417 219.93 97.957C219.93 98.353 220.038 98.695 220.254 98.983C220.47 99.271 220.821 99.55 221.307 99.82C221.811 100.072 222.495 100.369 223.359 100.711C224.223 101.053 224.961 101.404 225.573 101.764C226.185 102.124 226.644 102.565 226.95 103.087C227.274 103.591 227.436 104.23 227.436 105.004Z" fill="#EFF6FF"/>
<rect x="12" y="48.6005" width="17.1725" height="17.172" rx="8.58599" transform="rotate(-26.2696 12 48.6005)" fill="#EBDBF9" fill-opacity="0.18"/>
</g>
<defs>
<clipPath id="clip0_107_17658">
<path d="M0 24C0 10.7452 10.7452 0 24 0H336C349.255 0 360 10.7452 360 24V117C360 130.255 349.255 141 336 141H24C10.7452 141 0 130.255 0 117V24Z" fill="white"/>
</clipPath>
</defs>
</svg>
