<svg width="34" height="34" viewBox="0 0 34 34" fill="none" xmlns="http://www.w3.org/2000/svg">
<path d="M21.9143 4.16187H12.0863C8.60029 4.16187 7.83029 5.89787 7.38229 8.02587L5.80029 15.5999H28.2003L26.6183 8.02587C26.1703 5.89787 25.4003 4.16187 21.9143 4.16187Z" stroke="#EFF6FF" stroke-width="2.1" stroke-linecap="round" stroke-linejoin="round"/>
<path d="M30.9867 27.948C31.1407 29.586 29.8247 31 28.1447 31H25.5127C24.0007 31 23.7907 30.356 23.5247 29.558L23.2447 28.718C22.8527 27.57 22.6007 26.8 20.5847 26.8H13.4167C11.4007 26.8 11.1067 27.668 10.7567 28.718L10.4767 29.558C10.2107 30.356 10.0007 31 8.48871 31H5.85671C4.17671 31 2.86071 29.586 3.01471 27.948L3.79871 19.422C3.99471 17.322 4.40071 15.6 8.06871 15.6H25.9327C29.6007 15.6 30.0067 17.322 30.2027 19.422L30.9867 27.948Z" stroke="#EFF6FF" stroke-width="2.1" stroke-linecap="round" stroke-linejoin="round"/>
<path d="M5.80039 11.3999H4.40039" stroke="#EFF6FF" stroke-width="2.1" stroke-linecap="round" stroke-linejoin="round"/>
<path d="M29.6002 11.3999H28.2002" stroke="#EFF6FF" stroke-width="2.1" stroke-linecap="round" stroke-linejoin="round"/>
<path d="M17 4.3999V7.1999" stroke="#EFF6FF" stroke-width="2.1" stroke-linecap="round" stroke-linejoin="round"/>
<path d="M14.9004 7.19995H19.1004" stroke="#EFF6FF" stroke-width="2.1" stroke-linecap="round" stroke-linejoin="round"/>
<path d="M8.6001 21.2H12.8001" stroke="white" stroke-width="2.1" stroke-linecap="round" stroke-linejoin="round"/>
<path d="M21.2002 21.2H25.4002" stroke="white" stroke-width="2.1" stroke-linecap="round" stroke-linejoin="round"/>
</svg>
