<svg width="18" height="18" viewBox="0 0 18 18" fill="none" xmlns="http://www.w3.org/2000/svg">
<mask id="path-1-inside-1_971_12609" fill="white">
<path d="M7.5 2.5C7.5 2.36739 7.55268 2.24021 7.64645 2.14645C7.74021 2.05268 7.86739 2 8 2H10C10.1326 2 10.2598 2.05268 10.3536 2.14645C10.4473 2.24021 10.5 2.36739 10.5 2.5C10.5 2.63261 10.4473 2.75979 10.3536 2.85355C10.2598 2.94732 10.1326 3 10 3H8C7.86739 3 7.74021 2.94732 7.64645 2.85355C7.55268 2.75979 7.5 2.63261 7.5 2.5Z"/>
</mask>
<path d="M7.5 2.5C7.5 2.36739 7.55268 2.24021 7.64645 2.14645C7.74021 2.05268 7.86739 2 8 2H10C10.1326 2 10.2598 2.05268 10.3536 2.14645C10.4473 2.24021 10.5 2.36739 10.5 2.5C10.5 2.63261 10.4473 2.75979 10.3536 2.85355C10.2598 2.94732 10.1326 3 10 3H8C7.86739 3 7.74021 2.94732 7.64645 2.85355C7.55268 2.75979 7.5 2.63261 7.5 2.5Z" fill="#EFF6FF"/>
<path d="M8.5 2.5C8.5 2.63261 8.44732 2.75978 8.35355 2.85355L6.93934 1.43934C6.65803 1.72065 6.5 2.10218 6.5 2.5H8.5ZM8.35355 2.85355C8.25978 2.94732 8.13261 3 8 3V1C7.60218 1 7.22064 1.15804 6.93934 1.43934L8.35355 2.85355ZM8 3H10V1H8V3ZM10 3C9.86739 3 9.74022 2.94732 9.64645 2.85355L11.0607 1.43934C10.7794 1.15804 10.3978 1 10 1V3ZM9.64645 2.85355C9.55268 2.75978 9.5 2.63261 9.5 2.5H11.5C11.5 2.10218 11.342 1.72065 11.0607 1.43934L9.64645 2.85355ZM9.5 2.5C9.5 2.36739 9.55268 2.24022 9.64645 2.14645L11.0607 3.56066C11.342 3.27935 11.5 2.89782 11.5 2.5H9.5ZM9.64645 2.14645C9.74022 2.05268 9.86739 2 10 2V4C10.3978 4 10.7794 3.84196 11.0607 3.56066L9.64645 2.14645ZM10 2H8V4H10V2ZM8 2C8.13261 2 8.25978 2.05268 8.35355 2.14645L6.93934 3.56066C7.22064 3.84196 7.60218 4 8 4V2ZM8.35355 2.14645C8.44732 2.24022 8.5 2.36739 8.5 2.5H6.5C6.5 2.89782 6.65803 3.27935 6.93934 3.56066L8.35355 2.14645Z" fill="#EFF6FF" mask="url(#path-1-inside-1_971_12609)"/>
<mask id="path-3-inside-2_971_12609" fill="white">
<path fill-rule="evenodd" clip-rule="evenodd" d="M13.6813 6.26C13.4998 6.4025 13.2643 6.5165 12.9803 6.609C13.0346 7.16447 12.9721 7.72517 12.7968 8.25504C12.6214 8.78491 12.3372 9.27222 11.9622 9.68563C11.5873 10.0991 11.1299 10.4294 10.6197 10.6555C10.1094 10.8816 9.55743 10.9984 8.9993 10.9984C8.44118 10.9984 7.88923 10.8816 7.37895 10.6555C6.86867 10.4294 6.41135 10.0991 6.0364 9.68563C5.66144 9.27222 5.37716 8.78491 5.20182 8.25504C5.02648 7.72517 4.96397 7.16447 5.0183 6.609C4.7343 6.5165 4.4988 6.4025 4.3178 6.26C4.0828 6.075 3.9253 5.828 3.9068 5.531C3.8893 5.2555 3.9983 5.0215 4.1073 4.8565C4.2149 4.70022 4.34268 4.55883 4.4873 4.436C4.5573 4.3745 4.6263 4.32 4.6903 4.2725C4.6713 4.17 4.6503 4.046 4.6293 3.9025C4.54072 3.27224 4.49728 2.63645 4.4993 2C4.4993 1.843 4.5663 1.726 4.5973 1.6765C4.6363 1.614 4.6823 1.5605 4.7243 1.5175C4.8078 1.43 4.9158 1.341 5.0343 1.2555C5.2743 1.0815 5.6043 0.886 5.9963 0.703C6.7778 0.338 7.8513 0 8.9993 0C10.1478 0 11.2208 0.3385 12.0023 0.703C12.3393 0.857139 12.6613 1.04209 12.9643 1.2555C13.0828 1.341 13.1908 1.4305 13.2743 1.5175C13.3163 1.5605 13.3623 1.614 13.4013 1.6765C13.4323 1.726 13.4993 1.843 13.4993 2C13.4993 2.801 13.4343 3.45 13.3693 3.9025C13.3483 4.046 13.3273 4.17 13.3083 4.2725C13.3723 4.32 13.4418 4.3745 13.5118 4.436C13.6368 4.5455 13.7798 4.688 13.8913 4.8565C14.0008 5.0215 14.1093 5.2555 14.0923 5.5315C14.0738 5.828 13.9163 6.075 13.6813 6.26ZM5.5003 2.159C5.5078 2.833 5.5638 3.378 5.6193 3.759C5.6323 3.849 5.6453 3.929 5.6573 4H12.3413C12.3538 3.929 12.3663 3.8485 12.3793 3.759C12.4343 3.378 12.4908 2.833 12.4983 2.159C12.4594 2.1261 12.4192 2.09474 12.3778 2.065C12.1973 1.9345 11.9233 1.77 11.5793 1.6095C10.8878 1.2865 9.9613 1 8.9993 1C8.0373 1 7.1108 1.2865 6.4193 1.6095C6.0753 1.77 5.8013 1.9345 5.6213 2.0645C5.57973 2.09456 5.53937 2.12625 5.5003 2.1595M5.3933 5L5.3918 5.001C5.3055 5.0585 5.22285 5.12129 5.1443 5.189C5.0553 5.267 4.9843 5.343 4.9413 5.409C4.93107 5.42384 4.92188 5.43938 4.9138 5.4555C4.92088 5.46196 4.92822 5.46813 4.9358 5.474C5.0108 5.533 5.1718 5.6195 5.4858 5.705C5.5478 5.722 5.6143 5.738 5.6853 5.754L5.6898 5.755C5.9408 5.8105 6.2498 5.86 6.6263 5.899C7.1598 5.9545 7.8313 5.991 8.6703 5.999L8.9993 6C10.6128 6 11.6563 5.8995 12.3093 5.755L12.3133 5.754C12.3848 5.738 12.4513 5.722 12.5133 5.705C12.8268 5.62 12.9883 5.533 13.0628 5.474C13.0704 5.46813 13.0777 5.46196 13.0848 5.4555C13.0769 5.4394 13.0679 5.42386 13.0578 5.409C12.9996 5.32727 12.9313 5.25334 12.8543 5.189C12.7759 5.1213 12.6934 5.05851 12.6073 5.001L12.6053 5H5.3933ZM8.8633 7C10.1843 7 11.2083 6.93 11.9933 6.808C12.0191 7.21566 11.9614 7.62429 11.8237 8.00886C11.686 8.39342 11.4712 8.74581 11.1925 9.04443C10.9138 9.34306 10.577 9.58162 10.2029 9.74549C9.82872 9.90937 9.42504 9.99512 9.01657 9.99747C8.60811 9.99982 8.20346 9.91873 7.82744 9.75918C7.45142 9.59962 7.11194 9.36495 6.82981 9.06956C6.54769 8.77417 6.32886 8.42427 6.18674 8.04132C6.04462 7.65837 5.98219 7.25043 6.0033 6.8425C6.7348 6.9435 7.6723 7 8.8633 7ZM5.0383 16.4385C5.01225 16.6245 4.99922 16.8122 4.9993 17V17.5C4.99936 17.6099 4.96319 17.7168 4.8964 17.8041C4.82961 17.8914 4.73591 17.9542 4.62981 17.9829C4.5237 18.0116 4.4111 18.0045 4.30942 17.9628C4.20774 17.9211 4.12264 17.847 4.0673 17.752C3.73032 17.9348 3.33599 17.9812 2.9658 17.8815L1.9998 17.6225C1.61568 17.5194 1.28823 17.268 1.08946 16.9235C0.89068 16.579 0.83685 16.1697 0.939802 15.7855L1.3278 14.3365C1.4308 13.9523 1.6822 13.6247 2.02669 13.4258C2.37119 13.227 2.78057 13.1731 3.1648 13.276L4.1308 13.5345C4.4668 13.6245 4.7458 13.822 4.9398 14.08C5.40266 13.4357 6.01236 12.911 6.7184 12.5493C7.42444 12.1876 8.2065 11.9993 8.9998 12C9.79268 11.9995 10.5743 12.1878 11.2799 12.5493C11.9856 12.9108 12.595 13.4352 13.0578 14.079C13.2588 13.8125 13.5432 13.6209 13.8658 13.535L14.8318 13.2765C15.216 13.1735 15.6253 13.2274 15.9698 13.4262C16.3143 13.6249 16.5657 13.9524 16.6688 14.3365L17.0573 15.786C17.1083 15.9763 17.1212 16.1747 17.0955 16.37C17.0698 16.5653 17.0058 16.7537 16.9073 16.9242C16.8088 17.0948 16.6776 17.2443 16.5213 17.3642C16.365 17.4841 16.1866 17.5721 15.9963 17.623L15.0308 17.8815C14.6613 17.9812 14.2676 17.9354 13.9308 17.7535C13.8753 17.8483 13.7901 17.9222 13.6883 17.9638C13.5866 18.0053 13.474 18.0122 13.368 17.9834C13.262 17.9545 13.1684 17.8915 13.1018 17.8041C13.0351 17.7168 12.9991 17.6099 12.9993 17.5V17C12.9994 16.8122 12.9864 16.6245 12.9603 16.4385L10.3583 17.136C10.2375 17.3945 10.0455 17.6132 9.80479 17.7665C9.56408 17.9197 9.28465 18.0011 8.9993 18.0011C8.71395 18.0011 8.43453 17.9197 8.19381 17.7665C7.9531 17.6132 7.76108 17.3945 7.6403 17.136L5.0383 16.4385ZM7.5593 16.0785C7.62641 15.8506 7.74659 15.6418 7.90998 15.4692C8.07338 15.2967 8.27534 15.1654 8.4993 15.086V13.031C7.79798 13.1197 7.13262 13.3924 6.57084 13.8215C6.00906 14.2506 5.57087 14.8207 5.3008 15.474L7.5593 16.0785ZM12.6978 15.4735C12.4277 14.8203 11.9894 14.2503 11.4277 13.8213C10.8659 13.3923 10.2006 13.1196 9.4993 13.031V15.0855C9.9513 15.2455 10.3043 15.6155 10.4393 16.079L12.6978 15.4735ZM13.7713 15.1135C13.7543 15.0501 13.7499 14.9839 13.7585 14.9188C13.7671 14.8537 13.7884 14.7909 13.8212 14.734C13.854 14.6771 13.8977 14.6273 13.9498 14.5873C14.0019 14.5473 14.0614 14.518 14.1248 14.501L15.0908 14.242C15.2188 14.2078 15.3552 14.2258 15.47 14.2921C15.5847 14.3584 15.6685 14.4675 15.7028 14.5955L16.0913 16.0445C16.1083 16.1079 16.1127 16.1741 16.1041 16.2392C16.0956 16.3043 16.0743 16.3671 16.0414 16.424C16.0086 16.4809 15.9649 16.5307 15.9128 16.5707C15.8607 16.6107 15.8012 16.64 15.7378 16.657L14.7718 16.916C14.7083 16.933 14.6421 16.9373 14.577 16.9287C14.5119 16.9202 14.4491 16.8988 14.3922 16.8659C14.3353 16.8331 14.2855 16.7893 14.2455 16.7371C14.2055 16.685 14.1762 16.6255 14.1593 16.562L13.7713 15.1135ZM2.9063 14.242C2.84284 14.2249 2.77663 14.2205 2.71146 14.229C2.6463 14.2375 2.58345 14.2588 2.52651 14.2917C2.46958 14.3245 2.41968 14.3682 2.37966 14.4204C2.33964 14.4725 2.3103 14.532 2.2933 14.5955L1.9053 16.044C1.88829 16.1074 1.88393 16.1736 1.89249 16.2387C1.90105 16.3038 1.92235 16.3666 1.95518 16.4235C1.988 16.4804 2.03171 16.5302 2.08381 16.5702C2.13591 16.6102 2.19537 16.6395 2.2588 16.6565L3.2248 16.9155C3.28823 16.9325 3.35439 16.9369 3.4195 16.9283C3.48461 16.9198 3.5474 16.8985 3.60428 16.8656C3.66115 16.8328 3.71101 16.7891 3.75099 16.737C3.79097 16.6849 3.8203 16.6254 3.8373 16.562L4.2253 15.113C4.24239 15.0495 4.2468 14.9833 4.23828 14.9182C4.22976 14.853 4.20847 14.7901 4.17564 14.7332C4.14281 14.6763 4.09907 14.6264 4.04694 14.5864C3.9948 14.5463 3.93529 14.517 3.8718 14.5L2.9063 14.242ZM9.4993 16.5C9.4993 16.6326 9.44662 16.7598 9.35286 16.8536C9.25909 16.9473 9.13191 17 8.9993 17C8.86669 17 8.73952 16.9473 8.64575 16.8536C8.55198 16.7598 8.4993 16.6326 8.4993 16.5C8.4993 16.3674 8.55198 16.2402 8.64575 16.1464C8.73952 16.0527 8.86669 16 8.9993 16C9.13191 16 9.25909 16.0527 9.35286 16.1464C9.44662 16.2402 9.4993 16.3674 9.4993 16.5Z"/>
</mask>
<path fill-rule="evenodd" clip-rule="evenodd" d="M13.6813 6.26C13.4998 6.4025 13.2643 6.5165 12.9803 6.609C13.0346 7.16447 12.9721 7.72517 12.7968 8.25504C12.6214 8.78491 12.3372 9.27222 11.9622 9.68563C11.5873 10.0991 11.1299 10.4294 10.6197 10.6555C10.1094 10.8816 9.55743 10.9984 8.9993 10.9984C8.44118 10.9984 7.88923 10.8816 7.37895 10.6555C6.86867 10.4294 6.41135 10.0991 6.0364 9.68563C5.66144 9.27222 5.37716 8.78491 5.20182 8.25504C5.02648 7.72517 4.96397 7.16447 5.0183 6.609C4.7343 6.5165 4.4988 6.4025 4.3178 6.26C4.0828 6.075 3.9253 5.828 3.9068 5.531C3.8893 5.2555 3.9983 5.0215 4.1073 4.8565C4.2149 4.70022 4.34268 4.55883 4.4873 4.436C4.5573 4.3745 4.6263 4.32 4.6903 4.2725C4.6713 4.17 4.6503 4.046 4.6293 3.9025C4.54072 3.27224 4.49728 2.63645 4.4993 2C4.4993 1.843 4.5663 1.726 4.5973 1.6765C4.6363 1.614 4.6823 1.5605 4.7243 1.5175C4.8078 1.43 4.9158 1.341 5.0343 1.2555C5.2743 1.0815 5.6043 0.886 5.9963 0.703C6.7778 0.338 7.8513 0 8.9993 0C10.1478 0 11.2208 0.3385 12.0023 0.703C12.3393 0.857139 12.6613 1.04209 12.9643 1.2555C13.0828 1.341 13.1908 1.4305 13.2743 1.5175C13.3163 1.5605 13.3623 1.614 13.4013 1.6765C13.4323 1.726 13.4993 1.843 13.4993 2C13.4993 2.801 13.4343 3.45 13.3693 3.9025C13.3483 4.046 13.3273 4.17 13.3083 4.2725C13.3723 4.32 13.4418 4.3745 13.5118 4.436C13.6368 4.5455 13.7798 4.688 13.8913 4.8565C14.0008 5.0215 14.1093 5.2555 14.0923 5.5315C14.0738 5.828 13.9163 6.075 13.6813 6.26ZM5.5003 2.159C5.5078 2.833 5.5638 3.378 5.6193 3.759C5.6323 3.849 5.6453 3.929 5.6573 4H12.3413C12.3538 3.929 12.3663 3.8485 12.3793 3.759C12.4343 3.378 12.4908 2.833 12.4983 2.159C12.4594 2.1261 12.4192 2.09474 12.3778 2.065C12.1973 1.9345 11.9233 1.77 11.5793 1.6095C10.8878 1.2865 9.9613 1 8.9993 1C8.0373 1 7.1108 1.2865 6.4193 1.6095C6.0753 1.77 5.8013 1.9345 5.6213 2.0645C5.57973 2.09456 5.53937 2.12625 5.5003 2.1595M5.3933 5L5.3918 5.001C5.3055 5.0585 5.22285 5.12129 5.1443 5.189C5.0553 5.267 4.9843 5.343 4.9413 5.409C4.93107 5.42384 4.92188 5.43938 4.9138 5.4555C4.92088 5.46196 4.92822 5.46813 4.9358 5.474C5.0108 5.533 5.1718 5.6195 5.4858 5.705C5.5478 5.722 5.6143 5.738 5.6853 5.754L5.6898 5.755C5.9408 5.8105 6.2498 5.86 6.6263 5.899C7.1598 5.9545 7.8313 5.991 8.6703 5.999L8.9993 6C10.6128 6 11.6563 5.8995 12.3093 5.755L12.3133 5.754C12.3848 5.738 12.4513 5.722 12.5133 5.705C12.8268 5.62 12.9883 5.533 13.0628 5.474C13.0704 5.46813 13.0777 5.46196 13.0848 5.4555C13.0769 5.4394 13.0679 5.42386 13.0578 5.409C12.9996 5.32727 12.9313 5.25334 12.8543 5.189C12.7759 5.1213 12.6934 5.05851 12.6073 5.001L12.6053 5H5.3933ZM8.8633 7C10.1843 7 11.2083 6.93 11.9933 6.808C12.0191 7.21566 11.9614 7.62429 11.8237 8.00886C11.686 8.39342 11.4712 8.74581 11.1925 9.04443C10.9138 9.34306 10.577 9.58162 10.2029 9.74549C9.82872 9.90937 9.42504 9.99512 9.01657 9.99747C8.60811 9.99982 8.20346 9.91873 7.82744 9.75918C7.45142 9.59962 7.11194 9.36495 6.82981 9.06956C6.54769 8.77417 6.32886 8.42427 6.18674 8.04132C6.04462 7.65837 5.98219 7.25043 6.0033 6.8425C6.7348 6.9435 7.6723 7 8.8633 7ZM5.0383 16.4385C5.01225 16.6245 4.99922 16.8122 4.9993 17V17.5C4.99936 17.6099 4.96319 17.7168 4.8964 17.8041C4.82961 17.8914 4.73591 17.9542 4.62981 17.9829C4.5237 18.0116 4.4111 18.0045 4.30942 17.9628C4.20774 17.9211 4.12264 17.847 4.0673 17.752C3.73032 17.9348 3.33599 17.9812 2.9658 17.8815L1.9998 17.6225C1.61568 17.5194 1.28823 17.268 1.08946 16.9235C0.89068 16.579 0.83685 16.1697 0.939802 15.7855L1.3278 14.3365C1.4308 13.9523 1.6822 13.6247 2.02669 13.4258C2.37119 13.227 2.78057 13.1731 3.1648 13.276L4.1308 13.5345C4.4668 13.6245 4.7458 13.822 4.9398 14.08C5.40266 13.4357 6.01236 12.911 6.7184 12.5493C7.42444 12.1876 8.2065 11.9993 8.9998 12C9.79268 11.9995 10.5743 12.1878 11.2799 12.5493C11.9856 12.9108 12.595 13.4352 13.0578 14.079C13.2588 13.8125 13.5432 13.6209 13.8658 13.535L14.8318 13.2765C15.216 13.1735 15.6253 13.2274 15.9698 13.4262C16.3143 13.6249 16.5657 13.9524 16.6688 14.3365L17.0573 15.786C17.1083 15.9763 17.1212 16.1747 17.0955 16.37C17.0698 16.5653 17.0058 16.7537 16.9073 16.9242C16.8088 17.0948 16.6776 17.2443 16.5213 17.3642C16.365 17.4841 16.1866 17.5721 15.9963 17.623L15.0308 17.8815C14.6613 17.9812 14.2676 17.9354 13.9308 17.7535C13.8753 17.8483 13.7901 17.9222 13.6883 17.9638C13.5866 18.0053 13.474 18.0122 13.368 17.9834C13.262 17.9545 13.1684 17.8915 13.1018 17.8041C13.0351 17.7168 12.9991 17.6099 12.9993 17.5V17C12.9994 16.8122 12.9864 16.6245 12.9603 16.4385L10.3583 17.136C10.2375 17.3945 10.0455 17.6132 9.80479 17.7665C9.56408 17.9197 9.28465 18.0011 8.9993 18.0011C8.71395 18.0011 8.43453 17.9197 8.19381 17.7665C7.9531 17.6132 7.76108 17.3945 7.6403 17.136L5.0383 16.4385ZM7.5593 16.0785C7.62641 15.8506 7.74659 15.6418 7.90998 15.4692C8.07338 15.2967 8.27534 15.1654 8.4993 15.086V13.031C7.79798 13.1197 7.13262 13.3924 6.57084 13.8215C6.00906 14.2506 5.57087 14.8207 5.3008 15.474L7.5593 16.0785ZM12.6978 15.4735C12.4277 14.8203 11.9894 14.2503 11.4277 13.8213C10.8659 13.3923 10.2006 13.1196 9.4993 13.031V15.0855C9.9513 15.2455 10.3043 15.6155 10.4393 16.079L12.6978 15.4735ZM13.7713 15.1135C13.7543 15.0501 13.7499 14.9839 13.7585 14.9188C13.7671 14.8537 13.7884 14.7909 13.8212 14.734C13.854 14.6771 13.8977 14.6273 13.9498 14.5873C14.0019 14.5473 14.0614 14.518 14.1248 14.501L15.0908 14.242C15.2188 14.2078 15.3552 14.2258 15.47 14.2921C15.5847 14.3584 15.6685 14.4675 15.7028 14.5955L16.0913 16.0445C16.1083 16.1079 16.1127 16.1741 16.1041 16.2392C16.0956 16.3043 16.0743 16.3671 16.0414 16.424C16.0086 16.4809 15.9649 16.5307 15.9128 16.5707C15.8607 16.6107 15.8012 16.64 15.7378 16.657L14.7718 16.916C14.7083 16.933 14.6421 16.9373 14.577 16.9287C14.5119 16.9202 14.4491 16.8988 14.3922 16.8659C14.3353 16.8331 14.2855 16.7893 14.2455 16.7371C14.2055 16.685 14.1762 16.6255 14.1593 16.562L13.7713 15.1135ZM2.9063 14.242C2.84284 14.2249 2.77663 14.2205 2.71146 14.229C2.6463 14.2375 2.58345 14.2588 2.52651 14.2917C2.46958 14.3245 2.41968 14.3682 2.37966 14.4204C2.33964 14.4725 2.3103 14.532 2.2933 14.5955L1.9053 16.044C1.88829 16.1074 1.88393 16.1736 1.89249 16.2387C1.90105 16.3038 1.92235 16.3666 1.95518 16.4235C1.988 16.4804 2.03171 16.5302 2.08381 16.5702C2.13591 16.6102 2.19537 16.6395 2.2588 16.6565L3.2248 16.9155C3.28823 16.9325 3.35439 16.9369 3.4195 16.9283C3.48461 16.9198 3.5474 16.8985 3.60428 16.8656C3.66115 16.8328 3.71101 16.7891 3.75099 16.737C3.79097 16.6849 3.8203 16.6254 3.8373 16.562L4.2253 15.113C4.24239 15.0495 4.2468 14.9833 4.23828 14.9182C4.22976 14.853 4.20847 14.7901 4.17564 14.7332C4.14281 14.6763 4.09907 14.6264 4.04694 14.5864C3.9948 14.5463 3.93529 14.517 3.8718 14.5L2.9063 14.242ZM9.4993 16.5C9.4993 16.6326 9.44662 16.7598 9.35286 16.8536C9.25909 16.9473 9.13191 17 8.9993 17C8.86669 17 8.73952 16.9473 8.64575 16.8536C8.55198 16.7598 8.4993 16.6326 8.4993 16.5C8.4993 16.3674 8.55198 16.2402 8.64575 16.1464C8.73952 16.0527 8.86669 16 8.9993 16C9.13191 16 9.25909 16.0527 9.35286 16.1464C9.44662 16.2402 9.4993 16.3674 9.4993 16.5Z" fill="#EFF6FF"/>
<path d="M13.6813 6.26L14.2988 7.04654L14.2999 7.04574L13.6813 6.26ZM12.9803 6.609L12.6706 5.65816L11.9069 5.90692L11.9851 6.70635L12.9803 6.609ZM5.0183 6.609L6.01355 6.70635L6.09175 5.90692L5.32799 5.65816L5.0183 6.609ZM4.3178 6.26L4.93639 5.47428L4.93636 5.47426L4.3178 6.26ZM3.9068 5.531L4.90487 5.46883L4.90479 5.46761L3.9068 5.531ZM4.1073 4.8565L3.28364 4.28941L3.27821 4.29731L3.27292 4.30531L4.1073 4.8565ZM4.4873 4.436L5.13462 5.19822L5.14102 5.19278L5.14732 5.18725L4.4873 4.436ZM4.6903 4.2725L5.28628 5.0755L5.78726 4.70368L5.67355 4.09024L4.6903 4.2725ZM4.6293 3.9025L3.63902 4.04168L3.63984 4.0473L4.6293 3.9025ZM4.4993 2L5.4993 2.00318V2H4.4993ZM4.5973 1.6765L5.44482 2.20727L5.44568 2.20589L4.5973 1.6765ZM4.7243 1.5175L5.43973 2.21629L5.44775 2.20788L4.7243 1.5175ZM5.0343 1.2555L5.61942 2.06645L5.62127 2.06511L5.0343 1.2555ZM5.9963 0.703L6.41931 1.60912L6.41947 1.60905L5.9963 0.703ZM12.0023 0.703L11.5796 1.6093L11.5864 1.61239L12.0023 0.703ZM12.9643 1.2555L13.5495 0.444498L13.5402 0.437962L12.9643 1.2555ZM13.2743 1.5175L12.5528 2.20997L12.5589 2.21624L13.2743 1.5175ZM13.4013 1.6765L12.5529 2.20589L12.5538 2.20727L13.4013 1.6765ZM13.3693 3.9025L14.3588 4.0473L14.3591 4.04469L13.3693 3.9025ZM13.3083 4.2725L12.3251 4.09024L12.2113 4.70368L12.7123 5.0755L13.3083 4.2725ZM13.5118 4.436L12.8518 5.18725L12.8529 5.1882L13.5118 4.436ZM13.8913 4.8565L13.0574 5.40834L13.0581 5.40945L13.8913 4.8565ZM14.0923 5.5315L15.0904 5.59377L15.0904 5.59298L14.0923 5.5315ZM5.6193 3.759L6.60903 3.61604L6.60886 3.61485L5.6193 3.759ZM5.6573 4L4.67129 4.16665L4.81213 5H5.6573V4ZM12.3413 4V5H13.1806L13.3262 4.17339L12.3413 4ZM12.3793 3.759L13.3689 3.90274L13.369 3.90188L12.3793 3.759ZM12.4983 2.159L13.4982 2.17013L13.5035 1.69931L13.1439 1.39533L12.4983 2.159ZM12.3778 2.065L11.7919 2.87539L11.7942 2.87705L12.3778 2.065ZM11.5793 1.6095L11.1561 2.51553L11.1565 2.51572L11.5793 1.6095ZM6.4193 1.6095L6.84212 2.51572L6.84251 2.51553L6.4193 1.6095ZM5.6213 2.0645L5.03581 1.25382L5.03539 1.25413L5.6213 2.0645ZM5.3933 5V4H5.09045L4.83848 4.16803L5.3933 5ZM5.3918 5.001L5.94632 5.83317L5.94662 5.83297L5.3918 5.001ZM5.1443 5.189L4.49135 4.43155L4.4852 4.43695L5.1443 5.189ZM4.9413 5.409L5.76462 5.97658L5.77203 5.96583L5.77916 5.95488L4.9413 5.409ZM4.9138 5.4555L4.01979 5.00746L3.68071 5.68405L4.23974 6.19418L4.9138 5.4555ZM4.9358 5.474L5.55411 4.68802L5.54789 4.68321L4.9358 5.474ZM5.4858 5.705L5.75024 4.74059L5.74853 4.74013L5.4858 5.705ZM5.6853 5.754L5.46546 6.72954L5.46831 6.73017L5.6853 5.754ZM5.6898 5.755L5.47281 6.73117L5.4739 6.73142L5.6898 5.755ZM6.6263 5.899L6.72977 4.90437L6.72934 4.90432L6.6263 5.899ZM8.6703 5.999L8.66077 6.99898L8.66726 6.99899L8.6703 5.999ZM8.9993 6L8.99626 7H8.9993V6ZM12.3093 5.755L12.5254 6.73138L12.5387 6.72843L12.5519 6.72512L12.3093 5.755ZM12.3133 5.754L12.0949 4.77813L12.0828 4.78086L12.0707 4.78388L12.3133 5.754ZM12.5133 5.705L12.2516 4.73984L12.2489 4.7406L12.5133 5.705ZM13.0628 5.474L12.4507 4.68316L12.442 4.69006L13.0628 5.474ZM13.0848 5.4555L13.7589 6.19418L14.3137 5.68792L13.9821 5.01402L13.0848 5.4555ZM13.0578 5.409L13.886 4.84859L13.8794 4.83882L13.8726 4.82921L13.0578 5.409ZM12.8543 5.189L12.2006 5.94574L12.2067 5.95101L12.2129 5.95619L12.8543 5.189ZM12.6073 5.001L13.1626 4.16933L13.1106 4.13462L13.0547 4.10666L12.6073 5.001ZM12.6053 5L13.0527 4.10566L12.8415 4H12.6053V5ZM11.9933 6.808L12.9913 6.74483L12.9221 5.65165L11.8397 5.81986L11.9933 6.808ZM6.0033 6.8425L6.14008 5.8519L5.06093 5.7029L5.00464 6.79083L6.0033 6.8425ZM5.0383 16.4385L5.29722 15.4726L4.20483 15.1798L4.04797 16.2998L5.0383 16.4385ZM4.9993 17H5.9993V16.9995L4.9993 17ZM4.9993 17.5H3.9993L3.9993 17.5005L4.9993 17.5ZM4.0673 17.752L4.9313 17.2485L4.44298 16.4105L3.59047 16.873L4.0673 17.752ZM2.9658 17.8815L3.22576 16.9159L3.22477 16.9156L2.9658 17.8815ZM1.9998 17.6225L1.74055 18.5883L1.74083 18.5884L1.9998 17.6225ZM0.939802 15.7855L1.90572 16.0444L1.90577 16.0442L0.939802 15.7855ZM1.3278 14.3365L0.361908 14.0776L0.361833 14.0778L1.3278 14.3365ZM3.1648 13.276L2.90603 14.2419L2.9063 14.242L3.1648 13.276ZM4.1308 13.5345L4.38954 12.5686L4.38931 12.5685L4.1308 13.5345ZM4.9398 14.08L4.14055 14.681L4.95817 15.7683L5.75195 14.6635L4.9398 14.08ZM8.9998 12L8.99889 13L9.00046 13L8.9998 12ZM13.0578 14.079L12.2458 14.6627L13.0385 15.7655L13.8563 14.681L13.0578 14.079ZM13.8658 13.535L14.1233 14.5013L14.1243 14.501L13.8658 13.535ZM14.8318 13.2765L15.0903 14.2425L15.0907 14.2424L14.8318 13.2765ZM16.6688 14.3365L17.6347 14.0776L17.6346 14.0773L16.6688 14.3365ZM17.0573 15.786L18.0233 15.5273L18.0232 15.5271L17.0573 15.786ZM15.9963 17.623L15.7377 16.657H15.7377L15.9963 17.623ZM15.0308 17.8815L14.7722 16.9155L14.7703 16.916L15.0308 17.8815ZM13.9308 17.7535L14.4061 16.8737L13.5559 16.4145L13.0678 17.2483L13.9308 17.7535ZM12.9993 17.5L13.9993 17.5018V17.5H12.9993ZM12.9993 17L11.9993 16.9995V17H12.9993ZM12.9603 16.4385L13.9506 16.2998L13.7938 15.1798L12.7014 15.4726L12.9603 16.4385ZM10.3583 17.136L10.0994 16.1701L9.64946 16.2907L9.4523 16.7127L10.3583 17.136ZM7.6403 17.136L8.5463 16.7127L8.34914 16.2907L7.89922 16.1701L7.6403 17.136ZM7.5593 16.0785L7.30075 17.0445L8.24309 17.2967L8.51859 16.3609L7.5593 16.0785ZM8.4993 15.086L8.83339 16.0285L9.4993 15.7925V15.086H8.4993ZM8.4993 13.031H9.4993V11.8966L8.37388 12.0389L8.4993 13.031ZM5.3008 15.474L4.37666 15.092L3.94121 16.1453L5.04225 16.44L5.3008 15.474ZM12.6978 15.4735L12.9568 16.4394L14.0574 16.1443L13.6219 15.0913L12.6978 15.4735ZM9.4993 13.031L9.62467 12.0389L8.4993 11.8967V13.031H9.4993ZM9.4993 15.0855H8.4993V15.7923L9.16561 16.0282L9.4993 15.0855ZM10.4393 16.079L9.4792 16.3586L9.7529 17.2983L10.6983 17.0449L10.4393 16.079ZM13.7713 15.1135L14.7372 14.8548L14.7372 14.8544L13.7713 15.1135ZM14.1248 14.501L14.3837 15.4669L14.3838 15.4669L14.1248 14.501ZM15.0908 14.242L14.8327 13.2759L14.8318 13.2761L15.0908 14.242ZM15.7028 14.5955L16.6687 14.3365L16.6687 14.3364L15.7028 14.5955ZM16.0913 16.0445L15.1254 16.3035L15.1254 16.3036L16.0913 16.0445ZM15.7378 16.657L15.4789 15.6911L15.4788 15.6911L15.7378 16.657ZM14.7718 16.916L15.0306 17.8819L15.0308 17.8819L14.7718 16.916ZM14.1593 16.562L15.1255 16.3041L15.1252 16.3033L14.1593 16.562ZM2.9063 14.242L2.64628 15.2076L2.64814 15.2081L2.9063 14.242ZM2.2933 14.5955L3.25925 14.8542L3.25929 14.8541L2.2933 14.5955ZM1.9053 16.044L2.87116 16.3031L2.87125 16.3027L1.9053 16.044ZM2.2588 16.6565L2.51777 15.6906L2.51766 15.6906L2.2588 16.6565ZM3.2248 16.9155L3.48389 15.9496L3.48377 15.9496L3.2248 16.9155ZM3.8373 16.562L4.80322 16.8209L4.80327 16.8207L3.8373 16.562ZM4.2253 15.113L3.2597 14.853L3.25933 14.8543L4.2253 15.113ZM3.8718 14.5L4.13041 13.534L4.12996 13.5339L3.8718 14.5ZM13.0638 5.47346C13.0047 5.51987 12.8867 5.58779 12.6706 5.65816L13.29 7.55984C13.6419 7.44521 13.9949 7.28513 14.2988 7.04654L13.0638 5.47346ZM11.9851 6.70635C12.0258 7.12296 11.9789 7.54348 11.8474 7.94088L13.7462 8.5692C13.9653 7.90686 14.0435 7.20599 13.9756 6.51165L11.9851 6.70635ZM11.8474 7.94088C11.7159 8.33828 11.5027 8.70376 11.2215 9.01383L12.7029 10.3574C13.1716 9.84067 13.527 9.23153 13.7462 8.5692L11.8474 7.94088ZM11.2215 9.01383C10.9403 9.32389 10.5973 9.57167 10.2146 9.74124L11.0247 11.5698C11.6626 11.2872 12.2342 10.8742 12.7029 10.3574L11.2215 9.01383ZM10.2146 9.74124C9.83186 9.91081 9.4179 9.99841 8.9993 9.99841V11.9984C9.69696 11.9984 10.3869 11.8524 11.0247 11.5698L10.2146 9.74124ZM8.9993 9.99841C8.58071 9.99841 8.16675 9.91081 7.78404 9.74124L6.97386 11.5698C7.61171 11.8524 8.30165 11.9984 8.9993 11.9984V9.99841ZM7.78404 9.74124C7.40133 9.57167 7.05834 9.32389 6.77712 9.01383L5.29567 10.3574C5.76436 10.8742 6.33601 11.2872 6.97386 11.5698L7.78404 9.74124ZM6.77712 9.01383C6.49591 8.70376 6.28269 8.33828 6.15119 7.94088L4.25245 8.5692C4.47162 9.23153 4.82698 9.84067 5.29567 10.3574L6.77712 9.01383ZM6.15119 7.94088C6.01968 7.54348 5.9728 7.12296 6.01355 6.70635L4.02305 6.51165C3.95513 7.20599 4.03327 7.90686 4.25245 8.5692L6.15119 7.94088ZM5.32799 5.65816C5.11166 5.5877 4.99436 5.51992 4.93639 5.47428L3.69921 7.04572C4.00324 7.28508 4.35694 7.4453 4.70861 7.55984L5.32799 5.65816ZM4.93636 5.47426C4.90255 5.44764 4.89387 5.43188 4.89521 5.43418C4.89602 5.43556 4.89851 5.44026 4.90087 5.44787C4.90328 5.45566 4.90451 5.46312 4.90487 5.46883L2.90874 5.59317C2.94877 6.23588 3.29394 6.72667 3.69924 7.04574L4.93636 5.47426ZM4.90479 5.46761C4.90567 5.48145 4.90245 5.48576 4.90619 5.47478C4.91071 5.46153 4.92121 5.43868 4.94168 5.40769L3.27292 4.30531C3.10212 4.56386 2.87206 5.01581 2.90881 5.59439L4.90479 5.46761ZM4.93096 5.42359C4.98863 5.33983 5.05711 5.26405 5.13462 5.19822L3.83998 3.67378C3.62824 3.85361 3.44118 4.06061 3.28364 4.28941L4.93096 5.42359ZM5.14732 5.18725C5.19285 5.14724 5.2398 5.11 5.28628 5.0755L4.09432 3.4695C4.0128 3.53 3.92175 3.60175 3.82728 3.68475L5.14732 5.18725ZM5.67355 4.09024C5.65681 3.99993 5.63789 3.88842 5.61876 3.7577L3.63984 4.0473C3.66271 4.20358 3.68579 4.34007 3.70705 4.45476L5.67355 4.09024ZM5.61957 3.76333C5.53762 3.18022 5.49743 2.59201 5.4993 2.00318L3.49931 1.99682C3.49713 2.6809 3.54383 3.36425 3.63903 4.04167L5.61957 3.76333ZM5.4993 2C5.4993 2.12479 5.44769 2.20268 5.44482 2.20727L3.74978 1.14573C3.68491 1.24932 3.4993 1.56121 3.4993 2H5.4993ZM5.44568 2.20589C5.43978 2.21535 5.43575 2.22033 5.43518 2.22104C5.43454 2.22182 5.4358 2.22021 5.43968 2.21624L4.00893 0.81876C3.93438 0.895077 3.83747 1.00521 3.74892 1.14711L5.44568 2.20589ZM5.44775 2.20788C5.47361 2.18078 5.52864 2.13195 5.61942 2.06645L4.44919 0.44455C4.30297 0.55005 4.14199 0.679224 4.00085 0.827123L5.44775 2.20788ZM5.62127 2.06511C5.80225 1.9339 6.07579 1.7695 6.41931 1.60912L5.57329 -0.203124C5.13282 0.00250482 4.74635 0.229103 4.44733 0.445889L5.62127 2.06511ZM6.41947 1.60905C7.11029 1.2864 8.03756 1 8.9993 1V-1C7.66505 -1 6.44531 -0.610401 5.57313 -0.20305L6.41947 1.60905ZM8.9993 1C9.96126 1 10.8881 1.28673 11.5796 1.60927L12.425 -0.203272C11.5535 -0.609732 10.3343 -1 8.9993 -1V1ZM11.5864 1.61239C11.8673 1.7409 12.1358 1.89511 12.3884 2.07304L13.5402 0.437962C13.1868 0.189075 12.8113 -0.026626 12.4182 -0.206391L11.5864 1.61239ZM12.3792 2.06645C12.468 2.13054 12.5249 2.18079 12.5528 2.20995L13.9958 0.825054C13.8568 0.680208 13.6976 0.551461 13.5494 0.44455L12.3792 2.06645ZM12.5589 2.21624C12.5628 2.22021 12.5641 2.22182 12.5634 2.22104C12.5629 2.22034 12.5588 2.21535 12.5529 2.20589L14.2497 1.14711C14.1611 1.0052 14.0642 0.895071 13.9897 0.81876L12.5589 2.21624ZM12.5538 2.20727C12.5509 2.20268 12.4993 2.12479 12.4993 2H14.4993C14.4993 1.56121 14.3137 1.24932 14.2488 1.14573L12.5538 2.20727ZM12.4993 2C12.4993 2.74705 12.4387 3.34814 12.3795 3.76031L14.3591 4.04469C14.4299 3.55186 14.4993 2.85495 14.4993 2H12.4993ZM12.3798 3.7577C12.3607 3.88842 12.3418 3.99993 12.3251 4.09024L14.2916 4.45476C14.3128 4.34007 14.3359 4.20358 14.3588 4.0473L12.3798 3.7577ZM12.7123 5.0755C12.761 5.11159 12.8078 5.14863 12.8518 5.18725L14.1718 3.68475C14.0758 3.60036 13.9836 3.52841 13.9043 3.4695L12.7123 5.0755ZM12.8529 5.1882C12.9448 5.2687 13.0149 5.34412 13.0574 5.40834L14.7253 4.30466C14.5447 4.03188 14.3288 3.8223 14.1707 3.6838L12.8529 5.1882ZM13.0581 5.40945C13.0778 5.4392 13.0881 5.46152 13.0926 5.47469C13.0963 5.48562 13.0934 5.48223 13.0942 5.47002L15.0904 5.59298C15.1259 5.01623 14.8981 4.56509 14.7245 4.30355L13.0581 5.40945ZM13.0942 5.46923C13.0946 5.46327 13.0959 5.45566 13.0983 5.4478C13.1007 5.44012 13.1032 5.4354 13.104 5.43405C13.1053 5.43181 13.0966 5.44763 13.0627 5.47426L14.2999 7.04574C14.7049 6.72686 15.0503 6.23617 15.0904 5.59377L13.0942 5.46923ZM4.50036 2.17013C4.50841 2.89322 4.56852 3.48286 4.62975 3.90315L6.60886 3.61485C6.55908 3.27314 6.50719 2.77278 6.50024 2.14787L4.50036 2.17013ZM4.62957 3.90196C4.64408 4.00242 4.65847 4.0908 4.67129 4.16665L6.64332 3.83335C6.63214 3.7672 6.62052 3.69558 6.60903 3.61604L4.62957 3.90196ZM5.6573 5H12.3413V3H5.6573V5ZM13.3262 4.17339C13.3411 4.08852 13.3552 3.99707 13.3689 3.90274L11.3897 3.61526C11.3774 3.69993 11.3665 3.76948 11.3564 3.82661L13.3262 4.17339ZM13.369 3.90188C13.4295 3.48323 13.4902 2.89389 13.4982 2.17013L11.4984 2.14787C11.4914 2.77211 11.4391 3.27277 11.3896 3.61612L13.369 3.90188ZM13.1439 1.39533C13.085 1.34549 13.0241 1.298 12.9614 1.25295L11.7942 2.87705C11.8143 2.89148 11.8338 2.9067 11.8527 2.92267L13.1439 1.39533ZM12.9637 1.25462C12.7246 1.08172 12.3944 0.886322 12.0021 0.703283L11.1565 2.51572C11.4522 2.65368 11.67 2.78728 11.7919 2.87538L12.9637 1.25462ZM12.0025 0.703467C11.2205 0.338191 10.1477 0 8.9993 0V2C9.77488 2 10.5551 2.23481 11.1561 2.51553L12.0025 0.703467ZM8.9993 0C7.85088 0 6.7781 0.338191 5.99609 0.703467L6.84251 2.51553C7.4435 2.23481 8.22372 2 8.9993 2V0ZM5.99649 0.703283C5.6042 0.886314 5.27424 1.08162 5.03581 1.25382L6.20679 2.87518C6.32837 2.78738 6.54641 2.65369 6.84212 2.51572L5.99649 0.703283ZM5.03539 1.25413C4.97241 1.29966 4.91128 1.34766 4.85211 1.39802L6.14849 2.92098C6.16745 2.90484 6.18705 2.88946 6.20721 2.87487L5.03539 1.25413ZM4.83848 4.16803L4.83698 4.16903L5.94662 5.83297L5.94812 5.83197L4.83848 4.16803ZM4.83728 4.16883C4.71667 4.2492 4.60115 4.33695 4.49137 4.43158L5.79723 5.94642C5.84455 5.90563 5.89434 5.86781 5.94632 5.83317L4.83728 4.16883ZM4.4852 4.43695C4.36426 4.54294 4.21739 4.68822 4.10344 4.86312L5.77916 5.95488C5.7695 5.96972 5.76236 5.97888 5.75965 5.98228C5.75677 5.98588 5.75642 5.98603 5.7594 5.98281C5.7623 5.97968 5.7674 5.97438 5.77503 5.96703C5.78261 5.95972 5.79204 5.95101 5.8034 5.94105L4.4852 4.43695ZM4.11798 4.84142C4.08145 4.89442 4.04864 4.9499 4.01979 5.00746L5.80781 5.90354C5.79512 5.92886 5.78069 5.95327 5.76462 5.97658L4.11798 4.84142ZM4.23974 6.19418C4.26675 6.21882 4.29476 6.24238 4.32372 6.26479L5.54789 4.68321C5.56168 4.69388 5.57501 4.7051 5.58786 4.71682L4.23974 6.19418ZM4.31752 6.25995C4.54163 6.43626 4.84732 6.56755 5.22307 6.66987L5.74853 4.74013C5.63082 4.70808 5.56202 4.68125 5.52892 4.66647C5.4928 4.65034 5.51012 4.65346 5.55409 4.68805L4.31752 6.25995ZM5.22137 6.6694C5.30385 6.69202 5.38668 6.71178 5.46546 6.72954L5.90514 4.77846C5.84192 4.76422 5.79176 4.75198 5.75024 4.7406L5.22137 6.6694ZM5.46831 6.73017L5.47281 6.73117L5.9068 4.77883L5.9023 4.77783L5.46831 6.73017ZM5.4739 6.73142C5.76989 6.79686 6.11764 6.85166 6.52327 6.89368L6.72934 4.90432C6.38196 4.86834 6.11171 4.82414 5.9057 4.77858L5.4739 6.73142ZM6.52283 6.89363C7.09543 6.9532 7.79947 6.99074 8.66077 6.99895L8.67984 4.99904C7.86313 4.99126 7.22417 4.9558 6.72977 4.90437L6.52283 6.89363ZM8.66726 6.99899L8.99626 7L9.00234 5L8.67334 4.999L8.66726 6.99899ZM8.9993 7C10.6402 7 11.7678 6.89902 12.5254 6.73138L12.0932 4.77862C11.5448 4.89998 10.5854 5 8.9993 5V7ZM12.5519 6.72512L12.5559 6.72411L12.0707 4.78388L12.0667 4.78488L12.5519 6.72512ZM12.5317 6.72986C12.612 6.7119 12.6951 6.69207 12.7777 6.6694L12.2489 4.7406C12.2075 4.75193 12.1576 4.7641 12.0949 4.77813L12.5317 6.72986ZM12.775 6.67015C13.1509 6.56823 13.4588 6.43602 13.6836 6.25794L12.442 4.69006C12.4872 4.65427 12.5054 4.65078 12.4694 4.66689C12.4367 4.68151 12.3684 4.70817 12.2516 4.73985L12.775 6.67015ZM13.6749 6.26479C13.7038 6.24242 13.7318 6.21887 13.7589 6.19418L12.4107 4.71682C12.4236 4.70506 12.437 4.69384 12.4507 4.68321L13.6749 6.26479ZM13.9821 5.01402C13.9539 4.95671 13.9218 4.90144 13.886 4.84859L12.2296 5.96941C12.2139 5.94629 12.1999 5.92209 12.1875 5.89698L13.9821 5.01402ZM13.8726 4.82921C13.7649 4.67787 13.6382 4.54096 13.4957 4.42181L12.2129 5.95619C12.2243 5.96572 12.2344 5.97668 12.243 5.98879L13.8726 4.82921ZM13.508 4.43226C13.3984 4.33757 13.283 4.24976 13.1626 4.16933L12.052 5.83267C12.1038 5.86726 12.1534 5.90502 12.2006 5.94574L13.508 4.43226ZM13.0547 4.10666L13.0527 4.10566L12.1579 5.89434L12.1599 5.89534L13.0547 4.10666ZM12.6053 4H5.3933V6H12.6053V4ZM8.8633 8C10.2151 8 11.2941 7.92867 12.1469 7.79614L11.8397 5.81986C11.1225 5.93133 10.1535 6 8.8633 6V8ZM10.9953 6.87117C11.0125 7.14294 10.974 7.41537 10.8822 7.67174L12.7652 8.34597C12.9488 7.83322 13.0257 7.28837 12.9913 6.74483L10.9953 6.87117ZM10.8822 7.67174C10.7904 7.92812 10.6472 8.16305 10.4614 8.36213L11.9236 9.72674C12.2952 9.32858 12.5815 8.85872 12.7652 8.34597L10.8822 7.67174ZM10.4614 8.36213C10.2756 8.56121 10.0511 8.72025 9.80169 8.8295L10.6041 10.6615C11.103 10.443 11.552 10.1249 11.9236 9.72674L10.4614 8.36213ZM9.80169 8.8295C9.55225 8.93876 9.28312 8.99592 9.01081 8.99749L9.02233 10.9975C9.56696 10.9943 10.1052 10.88 10.6041 10.6615L9.80169 8.8295ZM9.01081 8.99749C8.7385 8.99905 8.46874 8.945 8.21806 8.83862L7.43682 10.6797C7.93818 10.8925 8.47771 11.0006 9.02233 10.9975L9.01081 8.99749ZM8.21806 8.83862C7.96738 8.73225 7.74106 8.57581 7.55297 8.37888L6.10666 9.76024C6.48282 10.1541 6.93546 10.467 7.43682 10.6797L8.21806 8.83862ZM7.55297 8.37888C7.36489 8.18195 7.21901 7.94869 7.12426 7.69339L5.24922 8.38926C5.43871 8.89986 5.73049 9.36639 6.10666 9.76024L7.55297 8.37888ZM7.12426 7.69339C7.02951 7.43808 6.98789 7.16612 7.00197 6.89417L5.00464 6.79083C4.97649 7.33473 5.05972 7.87865 5.24922 8.38926L7.12426 7.69339ZM5.86653 7.8331C6.65819 7.94241 7.64447 8 8.8633 8V6C7.70013 6 6.81142 5.94459 6.14008 5.8519L5.86653 7.8331ZM4.04797 16.2998C4.01546 16.5319 3.99919 16.7661 3.9993 17.0005L5.9993 16.9995C5.99924 16.8582 6.00904 16.7171 6.02864 16.5772L4.04797 16.2998ZM3.9993 17V17.5H5.9993V17H3.9993ZM3.9993 17.5005C3.99925 17.3906 4.03541 17.2837 4.1022 17.1964L5.6906 18.4117C5.89097 18.1499 5.99947 17.8292 5.9993 17.4995L3.9993 17.5005ZM4.1022 17.1964C4.16899 17.1091 4.26269 17.0463 4.3688 17.0176L4.89082 18.9483C5.20914 18.8622 5.49023 18.6736 5.6906 18.4117L4.1022 17.1964ZM4.3688 17.0176C4.4749 16.9889 4.5875 16.996 4.68919 17.0377L3.92965 18.8879C4.2347 19.0131 4.57251 19.0343 4.89082 18.9483L4.3688 17.0176ZM4.68919 17.0377C4.79086 17.0795 4.87596 17.1535 4.9313 17.2485L3.2033 18.2555C3.36933 18.5404 3.62461 18.7627 3.92965 18.8879L4.68919 17.0377ZM3.59047 16.873C3.4789 16.9335 3.34834 16.9489 3.22576 16.9159L2.70584 18.8471C3.32365 19.0134 3.98174 18.9361 4.54413 18.631L3.59047 16.873ZM3.22477 16.9156L2.25877 16.6566L1.74083 18.5884L2.70683 18.8474L3.22477 16.9156ZM2.25905 16.6567C2.13101 16.6223 2.02186 16.5385 1.9556 16.4237L0.22331 17.4233C0.554604 17.9974 1.10035 18.4165 1.74055 18.5883L2.25905 16.6567ZM1.9556 16.4237C1.88934 16.3089 1.8714 16.1724 1.90572 16.0444L-0.026114 15.5266C-0.197701 16.1669 -0.107984 16.8491 0.22331 17.4233L1.9556 16.4237ZM1.90577 16.0442L2.29377 14.5952L0.361833 14.0778L-0.026167 15.5268L1.90577 16.0442ZM2.2937 14.5954C2.32803 14.4674 2.41183 14.3582 2.52666 14.2919L1.52672 12.5598C0.952566 12.8913 0.533575 13.4372 0.361908 14.0776L2.2937 14.5954ZM2.52666 14.2919C2.64149 14.2256 2.77795 14.2076 2.90603 14.2419L3.42357 12.3101C2.78319 12.1385 2.10088 12.2283 1.52672 12.5598L2.52666 14.2919ZM2.9063 14.242L3.8723 14.5005L4.38931 12.5685L3.42331 12.31L2.9063 14.242ZM3.87207 14.5004C3.98504 14.5307 4.07637 14.5956 4.14055 14.681L5.73906 13.479C5.41524 13.0484 4.94857 12.7183 4.38954 12.5686L3.87207 14.5004ZM5.75195 14.6635C6.12211 14.1482 6.60971 13.7286 7.17436 13.4393L6.26244 11.6593C5.41501 12.0934 4.68321 12.7232 4.12766 13.4965L5.75195 14.6635ZM7.17436 13.4393C7.73901 13.15 8.36445 12.9994 8.99889 13L9.00072 11C8.04855 10.9991 7.10987 11.2251 6.26244 11.6593L7.17436 13.4393ZM9.00046 13C9.63455 12.9996 10.2596 13.1502 10.824 13.4393L11.7359 11.6593C10.8889 11.2254 9.9508 10.9994 8.99914 11L9.00046 13ZM10.824 13.4393C11.3883 13.7284 11.8757 14.1478 12.2458 14.6627L13.8698 13.4953C13.3144 12.7226 12.5829 12.0932 11.7359 11.6593L10.824 13.4393ZM13.8563 14.681C13.9227 14.593 14.0167 14.5297 14.1233 14.5013L13.6084 12.5687C13.0698 12.7122 12.5949 13.032 12.2593 13.477L13.8563 14.681ZM14.1243 14.501L15.0903 14.2425L14.5733 12.3105L13.6073 12.569L14.1243 14.501ZM15.0907 14.2424C15.2187 14.2081 15.3552 14.226 15.47 14.2923L16.4696 12.56C15.8954 12.2287 15.2132 12.139 14.5729 12.3106L15.0907 14.2424ZM15.47 14.2923C15.5848 14.3586 15.6686 14.4677 15.703 14.5957L17.6346 14.0773C17.4628 13.437 17.0437 12.8913 16.4696 12.56L15.47 14.2923ZM15.7029 14.5954L16.0914 16.0449L18.0232 15.5271L17.6347 14.0776L15.7029 14.5954ZM16.0913 16.0447C16.1083 16.1081 16.1127 16.1743 16.1041 16.2394L18.0869 16.5007C18.1298 16.1752 18.1082 15.8445 18.0233 15.5273L16.0913 16.0447ZM16.1041 16.2394C16.0955 16.3045 16.0742 16.3672 16.0413 16.4241L17.7732 17.4244C17.9374 17.1401 18.044 16.8262 18.0869 16.5007L16.1041 16.2394ZM16.0413 16.4241C16.0085 16.481 15.9648 16.5308 15.9127 16.5708L17.1299 18.1577C17.3904 17.9579 17.609 17.7087 17.7732 17.4244L16.0413 16.4241ZM15.9127 16.5708C15.8606 16.6107 15.8011 16.64 15.7377 16.657L16.2549 18.589C16.5721 18.5041 16.8694 18.3575 17.1299 18.1577L15.9127 16.5708ZM15.7377 16.657L14.7722 16.9155L15.2894 18.8475L16.2549 18.589L15.7377 16.657ZM14.7703 16.916C14.6479 16.9491 14.5176 16.9339 14.4061 16.8737L13.4555 18.6333C14.0176 18.9369 14.6746 19.0134 15.2913 18.847L14.7703 16.916ZM13.0678 17.2483C13.1233 17.1535 13.2085 17.0796 13.3103 17.038L14.0664 18.8896C14.3716 18.7649 14.6273 18.5432 14.7938 18.2587L13.0678 17.2483ZM13.3103 17.038C13.412 16.9965 13.5246 16.9896 13.6306 17.0184L13.1054 18.9483C13.4235 19.0348 13.7613 19.0142 14.0664 18.8896L13.3103 17.038ZM13.6306 17.0184C13.7366 17.0473 13.8302 17.1103 13.8968 17.1977L12.3067 18.4106C12.5066 18.6728 12.7873 18.8617 13.1054 18.9483L13.6306 17.0184ZM13.8968 17.1977C13.9635 17.285 13.9995 17.3919 13.9993 17.5018L11.9993 17.4982C11.9987 17.8279 12.1067 18.1485 12.3067 18.4106L13.8968 17.1977ZM13.9993 17.5V17H11.9993V17.5H13.9993ZM13.9993 17.0005C13.9994 16.7661 13.9831 16.5319 13.9506 16.2998L11.97 16.5772C11.9896 16.7171 11.9994 16.8582 11.9993 16.9995L13.9993 17.0005ZM12.7014 15.4726L10.0994 16.1701L10.6172 18.1019L13.2192 17.4044L12.7014 15.4726ZM9.4523 16.7127C9.41204 16.7989 9.34804 16.8718 9.2678 16.9229L10.3418 18.6101C10.743 18.3547 11.063 17.9902 11.2643 17.5593L9.4523 16.7127ZM9.2678 16.9229C9.18756 16.974 9.09442 17.0011 8.9993 17.0011V19.0011C9.47488 19.0011 9.94059 18.8654 10.3418 18.6101L9.2678 16.9229ZM8.9993 17.0011C8.90419 17.0011 8.81104 16.974 8.73081 16.9229L7.65682 18.6101C8.05801 18.8654 8.52372 19.0011 8.9993 19.0011V17.0011ZM8.73081 16.9229C8.65057 16.8718 8.58656 16.7989 8.5463 16.7127L6.7343 17.5593C6.9356 17.9902 7.25563 18.3547 7.65682 18.6101L8.73081 16.9229ZM7.89922 16.1701L5.29722 15.4726L4.77938 17.4044L7.38138 18.1019L7.89922 16.1701ZM8.51859 16.3609C8.54107 16.2846 8.58131 16.2147 8.63603 16.1569L7.18393 14.7816C6.91186 15.0689 6.71175 15.4165 6.60001 15.7961L8.51859 16.3609ZM8.63603 16.1569C8.69075 16.0991 8.75838 16.0551 8.83339 16.0285L8.16522 14.1435C7.79229 14.2756 7.45601 14.4943 7.18393 14.7816L8.63603 16.1569ZM9.4993 15.086V13.031H7.4993V15.086H9.4993ZM8.37388 12.0389C7.49743 12.1497 6.66592 12.4905 5.96384 13.0268L7.17783 14.6162C7.59933 14.2942 8.09853 14.0896 8.62472 14.0231L8.37388 12.0389ZM5.96384 13.0268C5.26177 13.563 4.71416 14.2755 4.37666 15.092L6.22495 15.856C6.42757 15.3659 6.75634 14.9381 7.17783 14.6162L5.96384 13.0268ZM5.04225 16.44L7.30075 17.0445L7.81786 15.1125L5.55936 14.508L5.04225 16.44ZM13.6219 15.0913C13.2843 14.275 12.7366 13.5626 12.0346 13.0265L10.8208 14.616C11.2422 14.9379 11.571 15.3656 11.7737 15.8557L13.6219 15.0913ZM12.0346 13.0265C11.3325 12.4904 10.5011 12.1496 9.62467 12.0389L9.37394 14.0231C9.90009 14.0896 10.3993 14.2942 10.8208 14.616L12.0346 13.0265ZM8.4993 13.031V15.0855H10.4993V13.031H8.4993ZM9.16561 16.0282C9.31694 16.0817 9.43495 16.2067 9.4792 16.3586L11.3994 15.7994C11.1736 15.0243 10.5857 14.4093 9.83299 14.1428L9.16561 16.0282ZM10.6983 17.0449L12.9568 16.4394L12.4388 14.5076L10.1803 15.1131L10.6983 17.0449ZM14.7372 14.8544C14.7542 14.9179 14.7585 14.984 14.75 15.0491L12.767 14.7885C12.7413 14.9838 12.7544 15.1823 12.8054 15.3726L14.7372 14.8544ZM14.75 15.0491C14.7414 15.1142 14.7201 15.177 14.6873 15.2339L12.9551 14.2342C12.8566 14.4048 12.7927 14.5932 12.767 14.7885L14.75 15.0491ZM14.6873 15.2339C14.6545 15.2908 14.6108 15.3406 14.5586 15.3806L13.341 13.794C13.1847 13.914 13.0535 14.0635 12.9551 14.2342L14.6873 15.2339ZM14.5586 15.3806C14.5066 15.4206 14.4471 15.4499 14.3837 15.4669L13.8659 13.5351C13.6756 13.5861 13.4973 13.6741 13.341 13.794L14.5586 15.3806ZM14.3838 15.4669L15.3498 15.2079L14.8318 13.2761L13.8658 13.5351L14.3838 15.4669ZM15.349 15.2081C15.2209 15.2423 15.0845 15.2243 14.9698 15.158L15.9701 13.4262C15.6259 13.2273 15.2167 13.1733 14.8327 13.2759L15.349 15.2081ZM14.9698 15.158C14.855 15.0917 14.7713 14.9826 14.737 14.8546L16.6687 14.3364C16.5656 13.9524 16.3144 13.625 15.9701 13.4262L14.9698 15.158ZM14.7369 14.8545L15.1254 16.3035L17.0572 15.7855L16.6687 14.3365L14.7369 14.8545ZM15.1254 16.3036C15.1084 16.2402 15.1041 16.174 15.1126 16.1089L17.0956 16.3695C17.1213 16.1742 17.1082 15.9757 17.0572 15.7854L15.1254 16.3036ZM15.1126 16.1089C15.1212 16.0438 15.1425 15.981 15.1753 15.9241L16.9075 16.9238C17.006 16.7532 17.0699 16.5648 17.0956 16.3695L15.1126 16.1089ZM15.1753 15.9241C15.2081 15.8672 15.2519 15.8174 15.304 15.7774L16.5216 17.364C16.6779 17.244 16.8091 17.0945 16.9075 16.9238L15.1753 15.9241ZM15.304 15.7774C15.3561 15.7374 15.4155 15.7081 15.4789 15.6911L15.9967 17.6229C16.1869 17.5719 16.3653 17.4839 16.5216 17.364L15.304 15.7774ZM15.4788 15.6911L14.5128 15.9501L15.0308 17.8819L15.9968 17.6229L15.4788 15.6911ZM14.513 15.9501C14.5764 15.9331 14.6426 15.9287 14.7078 15.9373L14.4463 17.9202C14.6417 17.9459 14.8402 17.9329 15.0306 17.8819L14.513 15.9501ZM14.7078 15.9373C14.7729 15.9459 14.8357 15.9673 14.8926 16.0001L13.8918 17.7317C14.0624 17.8304 14.2509 17.8944 14.4463 17.9202L14.7078 15.9373ZM14.8926 16.0001C14.9495 16.033 14.9993 16.0768 15.0393 16.1289L13.4517 17.3454C13.5716 17.5018 13.7211 17.6331 13.8918 17.7317L14.8926 16.0001ZM15.0393 16.1289C15.0792 16.1811 15.1085 16.2406 15.1255 16.3041L13.1931 16.8199C13.244 17.0104 13.3318 17.1889 13.4517 17.3454L15.0393 16.1289ZM15.1252 16.3033L14.7372 14.8548L12.8054 15.3722L13.1934 16.8207L15.1252 16.3033ZM3.16632 13.2764C2.97594 13.2251 2.77731 13.2119 2.5818 13.2375L2.84112 15.2206C2.77595 15.2291 2.70974 15.2247 2.64629 15.2076L3.16632 13.2764ZM2.5818 13.2375C2.3863 13.263 2.19776 13.3269 2.02695 13.4254L3.02607 15.1579C2.96914 15.1908 2.90629 15.2121 2.84112 15.2206L2.5818 13.2375ZM2.02695 13.4254C1.85615 13.5239 1.70645 13.6551 1.58639 13.8115L3.17293 15.0292C3.13291 15.0814 3.08301 15.1251 3.02607 15.1579L2.02695 13.4254ZM1.58639 13.8115C1.46634 13.9679 1.37831 14.1464 1.32732 14.3369L3.25929 14.8541C3.24229 14.9176 3.21295 14.9771 3.17293 15.0292L1.58639 13.8115ZM1.32736 14.3368L0.939356 15.7853L2.87125 16.3027L3.25925 14.8542L1.32736 14.3368ZM0.939447 15.7849C0.888405 15.9752 0.875346 16.1737 0.90102 16.369L2.88397 16.1084C2.89252 16.1735 2.88817 16.2397 2.87116 16.3031L0.939447 15.7849ZM0.90102 16.369C0.926693 16.5643 0.990595 16.7527 1.08907 16.9233L2.82128 15.9236C2.85411 15.9805 2.87541 16.0433 2.88397 16.1084L0.90102 16.369ZM1.08907 16.9233C1.18756 17.094 1.31869 17.2435 1.47497 17.3635L2.69265 15.7769C2.74474 15.8169 2.78845 15.8667 2.82128 15.9236L1.08907 16.9233ZM1.47497 17.3635C1.63126 17.4834 1.80964 17.5714 1.99995 17.6224L2.51766 15.6906C2.58109 15.7076 2.64056 15.7369 2.69265 15.7769L1.47497 17.3635ZM1.99983 17.6224L2.96583 17.8814L3.48377 15.9496L2.51777 15.6906L1.99983 17.6224ZM2.96572 17.8814C3.15602 17.9324 3.35449 17.9455 3.54981 17.9198L3.28919 15.9368C3.35429 15.9283 3.42045 15.9326 3.48389 15.9496L2.96572 17.8814ZM3.54981 17.9198C3.74515 17.8941 3.93351 17.8302 4.10414 17.7317L3.10441 15.9995C3.16129 15.9667 3.22408 15.9454 3.28919 15.9368L3.54981 17.9198ZM4.10414 17.7317C4.27477 17.6333 4.42433 17.5021 4.54429 17.3458L2.9577 16.1282C2.99768 16.0761 3.04754 16.0323 3.10441 15.9995L4.10414 17.7317ZM4.54429 17.3458C4.66424 17.1895 4.75222 17.0111 4.80322 16.8209L2.87139 16.3031C2.88838 16.2397 2.91771 16.1803 2.9577 16.1282L4.54429 17.3458ZM4.80327 16.8207L5.19127 15.3717L3.25933 14.8543L2.87133 16.3033L4.80327 16.8207ZM5.19091 15.373C5.24217 15.1826 5.2554 14.984 5.22984 14.7885L3.24672 15.0478C3.2382 14.9826 3.24261 14.9164 3.2597 14.853L5.19091 15.373ZM5.22984 14.7885C5.20427 14.593 5.14041 14.4045 5.04192 14.2337L3.30936 15.2328C3.27653 15.1758 3.25524 15.113 3.24672 15.0478L5.22984 14.7885ZM5.04192 14.2337C4.94342 14.0628 4.81221 13.9131 4.65581 13.7931L3.43806 15.3796C3.38593 15.3396 3.34219 15.2897 3.30936 15.2328L5.04192 14.2337ZM4.65581 13.7931C4.49941 13.673 4.32087 13.585 4.13041 13.534L3.6132 15.466C3.54971 15.449 3.4902 15.4196 3.43806 15.3796L4.65581 13.7931ZM4.12996 13.5339L3.16446 13.2759L2.64814 15.2081L3.61364 15.4661L4.12996 13.5339ZM8.4993 16.5C8.4993 16.3674 8.55198 16.2402 8.64575 16.1464L10.06 17.5607C10.3413 17.2794 10.4993 16.8978 10.4993 16.5H8.4993ZM8.64575 16.1464C8.73952 16.0527 8.8667 16 8.9993 16V18C9.39712 18 9.77866 17.842 10.06 17.5607L8.64575 16.1464ZM8.9993 16C9.13191 16 9.25908 16.0527 9.35285 16.1464L7.93864 17.5607C8.21995 17.842 8.60148 18 8.9993 18V16ZM9.35285 16.1464C9.44662 16.2402 9.4993 16.3674 9.4993 16.5H7.4993C7.4993 16.8978 7.65733 17.2794 7.93864 17.5607L9.35285 16.1464ZM9.4993 16.5C9.4993 16.6326 9.44662 16.7598 9.35285 16.8536L7.93864 15.4393C7.65733 15.7206 7.4993 16.1022 7.4993 16.5H9.4993ZM9.35285 16.8536C9.25908 16.9473 9.13191 17 8.9993 17V15C8.60148 15 8.21995 15.158 7.93864 15.4393L9.35285 16.8536ZM8.9993 17C8.8667 17 8.73952 16.9473 8.64575 16.8536L10.06 15.4393C9.77866 15.158 9.39712 15 8.9993 15V17ZM8.64575 16.8536C8.55198 16.7598 8.4993 16.6326 8.4993 16.5H10.4993C10.4993 16.1022 10.3413 15.7206 10.06 15.4393L8.64575 16.8536Z" fill="#EFF6FF" mask="url(#path-3-inside-2_971_12609)"/>
</svg>
