<svg width="60" height="61" viewBox="0 0 60 61" fill="none" xmlns="http://www.w3.org/2000/svg">
<g id="Logo" clip-path="url(#clip0_836_3768)">
<path id="Vector" d="M49.068 26.2086C49.656 26.2086 50.13 26.6871 50.13 27.2732V33.4037L50.118 35.6227C50.118 36.2088 49.638 36.6813 49.05 36.6813H40.896C40.098 36.6813 39.312 36.5976 38.556 36.4421C33.912 35.509 30.252 31.8546 29.322 27.2194C29.172 26.4658 29.094 25.6823 29.094 24.8808C29.1 19.1211 33.252 14.3364 38.73 13.3196C39.234 13.2239 39.606 12.7992 39.606 12.2909V10.1557V10.1258H38.844L22.482 10.1018V10.1198C22.068 10.1198 21.66 10.1198 21.252 10.1198C19.752 10.1198 19.722 10.1497 19.722 11.615C19.716 15.1677 19.722 17.3089 19.722 20.8676V23.7205C19.722 24.3067 19.248 24.7792 18.66 24.7792H10.29C9.70199 24.7792 9.22799 24.3067 9.22799 23.7205V15.066C9.22799 11.8363 9.21599 8.60658 9.22799 5.37685C9.24599 1.97966 11.244 0.0119176 14.7 0.00593658C27.456 -4.44038e-05 26.886 -0.0120064 39.642 0.00593658C39.882 0.00593658 40.122 0.0119176 40.362 0.0238795H44.886C47.784 0.0358415 50.13 2.3744 50.13 5.26322V4.8924V5.84337L50.118 17.9788C50.118 21.2504 47.76 23.5889 44.862 23.583H40.926C40.2 23.583 39.612 24.1631 39.612 24.8868C39.612 25.6105 40.2 26.1966 40.926 26.1966H49.08L49.068 26.2086Z" fill="#00537A"/>
<path id="Vector_2" d="M14.4775 36.6753C17.377 36.6753 19.7275 34.3323 19.7275 31.442C19.7275 28.5517 17.377 26.2086 14.4775 26.2086C11.578 26.2086 9.22754 28.5517 9.22754 31.442C9.22754 34.3323 11.578 36.6753 14.4775 36.6753Z" fill="#F5A201"/>
<path id="Vector_3" d="M9.768 60.7548H12.672L6.582 53.3922C7.506 53.3503 8.322 53.1589 9.03 52.8061C9.828 52.4113 10.44 51.8551 10.872 51.1374C11.304 50.4256 11.52 49.5883 11.52 48.6313C11.52 47.6744 11.304 46.8849 10.872 46.1732C10.44 45.4614 9.828 44.8932 9.03 44.4805C8.232 44.0679 7.296 43.8585 6.222 43.8585H0V60.7548H2.298V53.4042H3.792L9.768 60.7548ZM2.298 45.8562H6.156C7.134 45.8562 7.884 46.1253 8.412 46.6576C8.94 47.1959 9.204 47.8658 9.204 48.6792C9.204 49.5404 8.94 50.2223 8.412 50.7247C7.884 51.2271 7.122 51.4783 6.126 51.4783H2.298V45.8562Z" fill="#00537A"/>
<path id="Vector_4" d="M22.6503 49.7379C21.7323 49.2115 20.7003 48.9484 19.5603 48.9484C18.4203 48.9484 17.4183 49.2175 16.5063 49.7498C15.5943 50.2881 14.8683 51.0058 14.3343 51.903C13.7943 52.8061 13.5303 53.8169 13.5303 54.9353C13.5303 56.0538 13.8003 57.1004 14.3343 58.0155C14.8743 58.9306 15.5943 59.6603 16.5063 60.1926C17.4183 60.7309 18.4383 60.9941 19.5603 60.9941C20.6823 60.9941 21.7323 60.7249 22.6503 60.1926C23.5683 59.6543 24.3003 58.9306 24.8343 58.0155C25.3743 57.1004 25.6383 56.0717 25.6383 54.9353C25.6383 53.7989 25.3683 52.8001 24.8343 51.891C24.2943 50.9819 23.5683 50.2642 22.6503 49.7379ZM22.8843 56.9689C22.5603 57.561 22.1103 58.0275 21.5403 58.3684C20.9703 58.7093 20.3103 58.8768 19.5603 58.8768C18.8103 58.8768 18.1983 58.7093 17.6283 58.3684C17.0583 58.0275 16.6083 57.561 16.2843 56.9689C15.9603 56.3767 15.7983 55.7009 15.7983 54.9353C15.7983 54.1698 15.9603 53.5238 16.2843 52.9377C16.6083 52.3515 17.0583 51.897 17.6283 51.5621C18.1983 51.2271 18.8403 51.0656 19.5603 51.0656C20.2803 51.0656 20.9643 51.2331 21.5283 51.5621C22.0923 51.897 22.5363 52.3515 22.8723 52.9377C23.2083 53.5238 23.3703 54.1877 23.3703 54.9353C23.3703 55.6829 23.2083 56.3767 22.8843 56.9689Z" fill="#F5A201"/>
<path id="Vector_5" d="M35.532 55.8145C35.532 56.7715 35.286 57.5251 34.8 58.0634C34.314 58.6077 33.636 58.8768 32.772 58.8768C32.202 58.8768 31.704 58.7572 31.284 58.512C30.858 58.2668 30.54 57.9139 30.318 57.4533C30.096 56.9928 29.988 56.4425 29.988 55.8086V49.1876H27.792V55.9043C27.792 56.9091 28.002 57.7943 28.428 58.5598C28.854 59.3254 29.442 59.9115 30.198 60.3242C30.954 60.7369 31.812 60.9462 32.772 60.9462C33.732 60.9462 34.59 60.7369 35.334 60.3242C36.084 59.9115 36.666 59.3194 37.092 58.5598C37.518 57.7943 37.728 56.915 37.728 55.9043V49.1876H35.532V55.8086V55.8145Z" fill="#F5A201"/>
<path id="Vector_6" d="M44.6643 44.349H42.4683V49.1936H39.6123V51.1912H42.4683V60.7548H44.6643V51.1912H47.5203V49.1936H44.6643V44.349Z" fill="#F5A201"/>
<path id="Vector_7" d="M59.3039 51.6996C58.8419 50.8384 58.1939 50.1685 57.3599 49.678C56.5259 49.1876 55.5839 48.9484 54.5279 48.9484C53.4059 48.9484 52.3919 49.2115 51.4859 49.7379C50.5799 50.2642 49.8659 50.9819 49.3379 51.891C48.8099 52.8001 48.5459 53.8229 48.5459 54.9592C48.5459 56.0956 48.8159 57.1423 49.3499 58.0514C49.8899 58.9605 50.6159 59.6782 51.5339 60.2046C52.4519 60.7309 53.5019 60.9941 54.6719 60.9941C55.5839 60.9941 56.4359 60.8266 57.2339 60.4857C58.0319 60.1448 58.7159 59.6483 59.2859 59.0024L57.8699 57.567C57.4799 58.0215 57.0119 58.3624 56.4659 58.5897C55.9199 58.817 55.3199 58.9306 54.6719 58.9306C53.8919 58.9306 53.1959 58.7632 52.5959 58.4342C51.9959 58.0993 51.5279 57.6327 51.2039 57.0227C51.0059 56.6519 50.8679 56.2392 50.7899 55.7906H59.8739C59.9219 55.5633 59.9579 55.354 59.9699 55.1686C59.9879 54.9832 59.9939 54.8097 59.9939 54.6482C59.9939 53.5477 59.7599 52.5609 59.2979 51.7056L59.3039 51.6996ZM52.5059 51.4544C53.0759 51.1314 53.7359 50.9699 54.4859 50.9699C55.2359 50.9699 55.8119 51.1195 56.3159 51.4185C56.8199 51.7176 57.2099 52.1422 57.4859 52.6865C57.6719 53.0573 57.7979 53.482 57.8579 53.9664H50.8019C50.8739 53.5477 51.0059 53.165 51.1859 52.824C51.4979 52.2379 51.9359 51.7834 52.5059 51.4604V51.4544Z" fill="#F5A201"/>
</g>
<defs>
<clipPath id="clip0_836_3768">
<rect width="60" height="61" fill="white"/>
</clipPath>
</defs>
</svg>
