<svg width="35" height="34" viewBox="0 0 35 34" fill="none" xmlns="http://www.w3.org/2000/svg">
<path d="M24.667 28.9006H10.667C6.46699 28.9006 3.66699 26.8006 3.66699 21.9006V12.1006C3.66699 7.20059 6.46699 5.10059 10.667 5.10059H24.667C28.867 5.10059 31.667 7.20059 31.667 12.1006V21.9006C31.667 26.8006 28.867 28.9006 24.667 28.9006Z" stroke="#EFF6FF" stroke-width="2.1" stroke-miterlimit="10" stroke-linecap="round" stroke-linejoin="round"/>
<path d="M17.6668 21.1998C19.9864 21.1998 21.8668 19.3194 21.8668 16.9998C21.8668 14.6802 19.9864 12.7998 17.6668 12.7998C15.3472 12.7998 13.4668 14.6802 13.4668 16.9998C13.4668 19.3194 15.3472 21.1998 17.6668 21.1998Z" stroke="#EFF6FF" stroke-width="2.1" stroke-miterlimit="10" stroke-linecap="round" stroke-linejoin="round"/>
<path d="M8.56738 13.5V20.5" stroke="#EFF6FF" stroke-width="2.1" stroke-miterlimit="10" stroke-linecap="round" stroke-linejoin="round"/>
<path d="M26.7676 13.5V20.5" stroke="#F7F8FA" stroke-width="2.1" stroke-miterlimit="10" stroke-linecap="round" stroke-linejoin="round"/>
</svg>
