<svg width="34" height="34" viewBox="0 0 34 34" fill="none" xmlns="http://www.w3.org/2000/svg">
<path d="M19.4225 5.1139L21.8865 10.0419C22.2225 10.7279 23.1185 11.3859 23.8745 11.5119L28.3405 12.2539C31.1965 12.7299 31.8685 14.8019 29.8105 16.8459L26.3385 20.3179C25.7505 20.9059 25.4285 22.0399 25.6105 22.8519L26.6045 27.1499C27.3885 30.5519 25.5825 31.8679 22.5725 30.0899L18.3865 27.6119C17.6305 27.1639 16.3845 27.1639 15.6145 27.6119L11.4285 30.0899C8.43246 31.8679 6.61246 30.5379 7.39646 27.1499L8.39046 22.8519C8.57246 22.0399 8.25046 20.9059 7.66246 20.3179L4.19046 16.8459C2.14646 14.8019 2.80446 12.7299 5.66046 12.2539L10.1265 11.5119C10.8685 11.3859 11.7645 10.7279 12.1005 10.0419L14.5645 5.1139C15.9085 2.4399 18.0925 2.4399 19.4225 5.1139Z" stroke="#EFF6FF" stroke-width="2.1" stroke-linecap="round" stroke-linejoin="round"/>
</svg>
