<svg width="25" height="24" viewBox="0 0 25 24" fill="none" xmlns="http://www.w3.org/2000/svg">
<path d="M12.6207 12.7766C12.5507 12.7666 12.4607 12.7666 12.3807 12.7766C10.6207 12.7166 9.2207 11.2766 9.2207 9.50656C9.2207 7.69656 10.6807 6.22656 12.5007 6.22656C14.3107 6.22656 15.7807 7.69656 15.7807 9.50656C15.7707 11.2766 14.3807 12.7166 12.6207 12.7766Z" stroke="#7D7C7C" stroke-width="1.5" stroke-linecap="round" stroke-linejoin="round"/>
<path d="M19.2398 19.3825C17.4598 21.0125 15.0998 22.0025 12.4998 22.0025C9.89977 22.0025 7.53977 21.0125 5.75977 19.3825C5.85977 18.4425 6.45977 17.5225 7.52977 16.8025C10.2698 14.9825 14.7498 14.9825 17.4698 16.8025C18.5398 17.5225 19.1398 18.4425 19.2398 19.3825Z" stroke="#7D7C7C" stroke-width="1.5" stroke-linecap="round" stroke-linejoin="round"/>
<path d="M12.5 22C18.0228 22 22.5 17.5228 22.5 12C22.5 6.47715 18.0228 2 12.5 2C6.97715 2 2.5 6.47715 2.5 12C2.5 17.5228 6.97715 22 12.5 22Z" stroke="#7D7C7C" stroke-width="1.5" stroke-linecap="round" stroke-linejoin="round"/>
</svg>
