<svg width="34" height="34" viewBox="0 0 34 34" fill="none" xmlns="http://www.w3.org/2000/svg">
<path d="M25.4001 10.224C25.3161 10.21 25.2181 10.21 25.1341 10.224C23.2021 10.154 21.6621 8.572 21.6621 6.612C21.6621 4.61 23.2721 3 25.2741 3C27.2761 3 28.8861 4.624 28.8861 6.612C28.8721 8.572 27.3321 10.154 25.4001 10.224Z" stroke="#EFF6FF" stroke-width="2.1" stroke-linecap="round" stroke-linejoin="round"/>
<path d="M23.958 20.416C25.876 20.738 27.99 20.402 29.474 19.408C31.448 18.092 31.448 15.936 29.474 14.62C27.976 13.626 25.834 13.29 23.916 13.626" stroke="#EFF6FF" stroke-width="2.1" stroke-linecap="round" stroke-linejoin="round"/>
<path d="M8.55827 10.224C8.64227 10.21 8.74027 10.21 8.82427 10.224C10.7563 10.154 12.2963 8.572 12.2963 6.612C12.2963 4.61 10.6863 3 8.68427 3C6.68227 3 5.07227 4.624 5.07227 6.612C5.08627 8.572 6.62627 10.154 8.55827 10.224Z" stroke="#EFF6FF" stroke-width="2.1" stroke-linecap="round" stroke-linejoin="round"/>
<path d="M9.99992 20.416C8.08192 20.738 5.96792 20.402 4.48392 19.408C2.50992 18.092 2.50992 15.936 4.48392 14.62C5.98192 13.626 8.12391 13.29 10.0419 13.626" stroke="#EFF6FF" stroke-width="2.1" stroke-linecap="round" stroke-linejoin="round"/>
<path d="M17.0002 20.6819C16.9162 20.6679 16.8182 20.6679 16.7342 20.6819C14.8022 20.6119 13.2622 19.0299 13.2622 17.0699C13.2622 15.0679 14.8722 13.4579 16.8742 13.4579C18.8762 13.4579 20.4862 15.0819 20.4862 17.0699C20.4722 19.0299 18.9322 20.6259 17.0002 20.6819Z" stroke="#EFF6FF" stroke-width="2.1" stroke-linecap="round" stroke-linejoin="round"/>
<path d="M12.9263 25.0919C10.9523 26.4079 10.9523 28.5639 12.9263 29.8799C15.1663 31.3779 18.8343 31.3779 21.0743 29.8799C23.0483 28.5639 23.0483 26.4079 21.0743 25.0919C18.8483 23.6079 15.1663 23.6079 12.9263 25.0919Z" stroke="#EFF6FF" stroke-width="2.1" stroke-linecap="round" stroke-linejoin="round"/>
</svg>
