<svg xmlns="http://www.w3.org/2000/svg" width="128" height="128" fill="none" viewBox="0 0 128 128" id="groups">
  <circle cx="63.5" cy="39.5" r="17.5" stroke="#1F1F1F" stroke-width="7" transform="rotate(-90 63.5 39.5)"></circle>
  <path stroke="#1F1F1F" stroke-linecap="round" stroke-linejoin="round" stroke-width="7" d="M92.5038 30.0074C94.4084 29.8751 96.3205 30.1193 98.1308 30.7259 99.9411 31.3326 101.614 32.2899 103.054 33.5431 104.495 34.7963 105.674 36.321 106.525 38.0301 107.376 39.7391 107.883 41.599 108.015 43.5037 108.147 45.4083 107.903 47.3204 107.296 49.1307 106.69 50.941 105.732 52.6141 104.479 54.0544 103.226 55.4947 101.701 56.6741 99.9922 57.5252 98.2832 58.3763 96.4232 58.8825 94.5186 59.0148M35.5185 30.0074C33.6138 29.8751 31.7017 30.1193 29.8915 30.7259 28.0812 31.3326 26.4081 32.2899 24.9677 33.5431 23.5274 34.7963 22.348 36.321 21.4969 38.0301 20.6458 39.7391 20.1397 41.599 20.0074 43.5037 19.8751 45.4083 20.1192 47.3204 20.7259 49.1307 21.3325 50.941 22.2898 52.6141 23.5431 54.0544 24.7963 55.4947 26.321 56.6741 28.03 57.5252 29.739 58.3763 31.599 58.8825 33.5036 59.0148"></path>
  <path stroke="#1F1F1F" stroke-linejoin="round" stroke-width="7" d="M32 88.2378C32 98.0476 39.9524 106 49.7622 106H76.1575C86.0116 106 94 98.0116 94 88.1575V88.1575C94 76.1531 82.3842 67.5738 70.9106 71.1038L68.2949 71.9086C64.5812 73.0512 60.6077 73.0363 56.9026 71.866L55.1122 71.3005C43.6638 67.6843 32 76.2319 32 88.2378V88.2378Z"></path>
  <path stroke="#1F1F1F" stroke-linejoin="round" stroke-width="7" d="M85 104H97.7314C105.612 104 112 97.6117 112 89.7314V85.7127C112 78.3108 104.952 72.9419 97.8158 74.9079V74.9079L90.7237 76.8618M42 104H29.2686C21.3883 104 15 97.6117 15 89.7314V85.7127C15 78.3108 22.0482 72.9419 29.1842 74.9079V74.9079L36.2763 76.8618"></path>
</svg>
